<svg xmlns="http://www.w3.org/2000/svg" viewBox="0 0 1400 1000" width="1400" height="1000">
<style>text{font-family:"Helvetica Neue",Helvetica,Arial,sans-serif;}</style>
<defs>
<marker id="arrow-blue" markerWidth="10" markerHeight="7" refX="9" refY="3.5" orient="auto"><polygon points="0 0,10 3.5,0 7" fill="#2563eb"/></marker>
<marker id="arrow-green" markerWidth="10" markerHeight="7" refX="9" refY="3.5" orient="auto"><polygon points="0 0,10 3.5,0 7" fill="#16a34a"/></marker>
<marker id="arrow-orange" markerWidth="10" markerHeight="7" refX="9" refY="3.5" orient="auto"><polygon points="0 0,10 3.5,0 7" fill="#ea580c"/></marker>
<marker id="arrow-gray" markerWidth="10" markerHeight="7" refX="9" refY="3.5" orient="auto"><polygon points="0 0,10 3.5,0 7" fill="#6b7280"/></marker>
<marker id="arrow-purple" markerWidth="10" markerHeight="7" refX="9" refY="3.5" orient="auto"><polygon points="0 0,10 3.5,0 7" fill="#9333ea"/></marker>
</defs>
<rect width="1400" height="1000" fill="#ffffff"/>
<text x="700.0" y="36" text-anchor="middle" font-size="20" font-weight="600" fill="#111827">Containers — Nexus</text>
<text x="700.0" y="58" text-anchor="middle" font-size="12" fill="#6b7280">Level 2 (C4): binaries, core Rust crates, and storage inside the Nexus boundary</text>
<rect x="40" y="120" width="160" height="60" rx="8" fill="#eff6ff" stroke="#bfdbfe" stroke-width="1.5"/>
<text x="120.0" y="140" text-anchor="middle" font-size="13" font-weight="600" fill="#111827">User</text>
<text x="120.0" y="156" text-anchor="middle" font-size="10" fill="#6b7280">[Person]</text>
<rect x="40" y="220" width="160" height="60" rx="8" fill="#fff7ed" stroke="#fed7aa" stroke-width="1.5"/>
<text x="120.0" y="240" text-anchor="middle" font-size="13" font-weight="600" fill="#111827">MCP Client</text>
<text x="120.0" y="256" text-anchor="middle" font-size="10" fill="#6b7280">[external]</text>
<text x="120.0" y="274" text-anchor="middle" font-size="10" fill="#374151">Claude Code / Cursor</text>
<rect x="40" y="320" width="160" height="60" rx="8" fill="#faf5ff" stroke="#e9d5ff" stroke-width="1.5"/>
<text x="120.0" y="340" text-anchor="middle" font-size="13" font-weight="600" fill="#111827">AI Providers</text>
<text x="120.0" y="356" text-anchor="middle" font-size="10" fill="#6b7280">[external]</text>
<text x="120.0" y="374" text-anchor="middle" font-size="10" fill="#374151">HTTPS / local</text>
<rect x="40" y="420" width="160" height="60" rx="8" fill="#f9fafb" stroke="#d1d5db" stroke-width="1.5"/>
<text x="120.0" y="440" text-anchor="middle" font-size="13" font-weight="600" fill="#111827">OS Keyring</text>
<text x="120.0" y="456" text-anchor="middle" font-size="10" fill="#6b7280">[external]</text>
<rect x="40" y="520" width="160" height="60" rx="8" fill="#f0fdf4" stroke="#bbf7d0" stroke-width="1.5"/>
<text x="120.0" y="540" text-anchor="middle" font-size="13" font-weight="600" fill="#111827">Forge</text>
<text x="120.0" y="556" text-anchor="middle" font-size="10" fill="#6b7280">[filesystem]</text>
<text x="120.0" y="574" text-anchor="middle" font-size="10" fill="#374151">Markdown source</text>
<rect x="240" y="100" width="1120" height="820" rx="10" fill="none" stroke="#9ca3af" stroke-width="1.5" stroke-dasharray="8,4"/>
<text x="252" y="118" font-size="12" font-weight="600" fill="#6b7280">Nexus (system boundary)</text>
<rect x="270" y="150" width="1060" height="140" rx="10" fill="none" stroke="#9ca3af" stroke-width="1.5" stroke-dasharray="8,4"/>
<text x="282" y="168" font-size="12" font-weight="600" fill="#6b7280">Entry points</text>
<rect x="290" y="190" width="170" height="80" rx="8" fill="#eff6ff" stroke="#bfdbfe" stroke-width="1.5"/>
<text x="375.0" y="210" text-anchor="middle" font-size="13" font-weight="600" fill="#111827">nexus CLI</text>
<text x="375.0" y="226" text-anchor="middle" font-size="10" fill="#6b7280">[Rust + clap]</text>
<text x="375.0" y="244" text-anchor="middle" font-size="10" fill="#374151">Subcommands</text>
<rect x="480" y="190" width="170" height="80" rx="8" fill="#eff6ff" stroke="#bfdbfe" stroke-width="1.5"/>
<text x="565.0" y="210" text-anchor="middle" font-size="13" font-weight="600" fill="#111827">nexus-tui</text>
<text x="565.0" y="226" text-anchor="middle" font-size="10" fill="#6b7280">[Rust + ratatui]</text>
<text x="565.0" y="244" text-anchor="middle" font-size="10" fill="#374151">Terminal UI</text>
<rect x="670" y="190" width="170" height="80" rx="8" fill="#fff7ed" stroke="#fed7aa" stroke-width="1.5"/>
<text x="755.0" y="210" text-anchor="middle" font-size="13" font-weight="600" fill="#111827">MCP Server</text>
<text x="755.0" y="226" text-anchor="middle" font-size="10" fill="#6b7280">[Rust + rmcp]</text>
<text x="755.0" y="244" text-anchor="middle" font-size="10" fill="#374151">13 tools over stdio</text>
<rect x="860" y="190" width="180" height="80" rx="8" fill="#eff6ff" stroke="#bfdbfe" stroke-width="1.5"/>
<text x="950.0" y="210" text-anchor="middle" font-size="13" font-weight="600" fill="#111827">Desktop Shell</text>
<text x="950.0" y="226" text-anchor="middle" font-size="10" fill="#6b7280">[Tauri 2]</text>
<text x="950.0" y="244" text-anchor="middle" font-size="10" fill="#374151">nexus-app + src-tauri</text>
<rect x="1060" y="190" width="250" height="80" rx="8" fill="#faf5ff" stroke="#e9d5ff" stroke-width="1.5"/>
<text x="1185.0" y="210" text-anchor="middle" font-size="13" font-weight="600" fill="#111827">Web UI</text>
<text x="1185.0" y="226" text-anchor="middle" font-size="10" fill="#6b7280">[React + Vite + TS]</text>
<text x="1185.0" y="244" text-anchor="middle" font-size="10" fill="#374151">app/ frontend</text>
<rect x="270" y="320" width="1060" height="380" rx="10" fill="none" stroke="#9ca3af" stroke-width="1.5" stroke-dasharray="8,4"/>
<text x="282" y="338" font-size="12" font-weight="600" fill="#6b7280">Core (Rust workspace crates)</text>
<rect x="560" y="350" width="220" height="80" rx="8" fill="#dbeafe" stroke="#2563eb" stroke-width="1.5"/>
<text x="670.0" y="370" text-anchor="middle" font-size="13" font-weight="600" fill="#111827">nexus-kernel</text>
<text x="670.0" y="386" text-anchor="middle" font-size="10" fill="#6b7280">[Rust lib]</text>
<text x="670.0" y="404" text-anchor="middle" font-size="10" fill="#374151">Event bus + IPC + plugins</text>
<rect x="290" y="450" width="200" height="70" rx="8" fill="#f9fafb" stroke="#d1d5db" stroke-width="1.5"/>
<text x="390.0" y="470" text-anchor="middle" font-size="13" font-weight="600" fill="#111827">nexus-plugins</text>
<text x="390.0" y="486" text-anchor="middle" font-size="10" fill="#6b7280">[wasmtime]</text>
<text x="390.0" y="504" text-anchor="middle" font-size="10" fill="#374151">Sandbox + loader</text>
<rect x="500" y="450" width="200" height="70" rx="8" fill="#f9fafb" stroke="#d1d5db" stroke-width="1.5"/>
<text x="600.0" y="470" text-anchor="middle" font-size="13" font-weight="600" fill="#111827">nexus-storage</text>
<text x="600.0" y="486" text-anchor="middle" font-size="10" fill="#6b7280">[Rust]</text>
<text x="600.0" y="504" text-anchor="middle" font-size="10" fill="#374151">SQLite + Tantivy + graph</text>
<rect x="710" y="450" width="200" height="70" rx="8" fill="#f9fafb" stroke="#d1d5db" stroke-width="1.5"/>
<text x="810.0" y="470" text-anchor="middle" font-size="13" font-weight="600" fill="#111827">nexus-ai</text>
<text x="810.0" y="486" text-anchor="middle" font-size="10" fill="#6b7280">[reqwest]</text>
<text x="810.0" y="504" text-anchor="middle" font-size="10" fill="#374151">Providers + RAG</text>
<rect x="920" y="450" width="200" height="70" rx="8" fill="#f9fafb" stroke="#d1d5db" stroke-width="1.5"/>
<text x="1020.0" y="470" text-anchor="middle" font-size="13" font-weight="600" fill="#111827">nexus-security</text>
<text x="1020.0" y="486" text-anchor="middle" font-size="10" fill="#6b7280">[Rust]</text>
<text x="1020.0" y="504" text-anchor="middle" font-size="10" fill="#374151">Keyring + audit</text>
<rect x="1130" y="450" width="200" height="70" rx="8" fill="#f9fafb" stroke="#d1d5db" stroke-width="1.5"/>
<text x="1230.0" y="470" text-anchor="middle" font-size="13" font-weight="600" fill="#111827">nexus-bootstrap</text>
<text x="1230.0" y="486" text-anchor="middle" font-size="10" fill="#6b7280">[Rust]</text>
<text x="1230.0" y="504" text-anchor="middle" font-size="10" fill="#374151">Wires core plugins</text>
<rect x="290" y="530" width="200" height="70" rx="8" fill="#f9fafb" stroke="#d1d5db" stroke-width="1.5"/>
<text x="390.0" y="550" text-anchor="middle" font-size="13" font-weight="600" fill="#111827">nexus-plugin-api</text>
<text x="390.0" y="566" text-anchor="middle" font-size="10" fill="#6b7280">[Rust]</text>
<text x="390.0" y="584" text-anchor="middle" font-size="10" fill="#374151">Plugin SDK</text>
<rect x="500" y="530" width="200" height="70" rx="8" fill="#f9fafb" stroke="#d1d5db" stroke-width="1.5"/>
<text x="600.0" y="550" text-anchor="middle" font-size="13" font-weight="600" fill="#111827">nexus-editor</text>
<text x="600.0" y="566" text-anchor="middle" font-size="10" fill="#6b7280">[Rust]</text>
<text x="600.0" y="584" text-anchor="middle" font-size="10" fill="#374151">PRD-08</text>
<rect x="710" y="530" width="200" height="70" rx="8" fill="#f9fafb" stroke="#d1d5db" stroke-width="1.5"/>
<text x="810.0" y="550" text-anchor="middle" font-size="13" font-weight="600" fill="#111827">nexus-terminal</text>
<text x="810.0" y="566" text-anchor="middle" font-size="10" fill="#6b7280">[portable-pty]</text>
<text x="810.0" y="584" text-anchor="middle" font-size="10" fill="#374151">Process mgr</text>
<rect x="920" y="530" width="200" height="70" rx="8" fill="#f9fafb" stroke="#d1d5db" stroke-width="1.5"/>
<text x="1020.0" y="550" text-anchor="middle" font-size="13" font-weight="600" fill="#111827">nexus-database</text>
<text x="1020.0" y="566" text-anchor="middle" font-size="10" fill="#6b7280">[Rust]</text>
<text x="1020.0" y="584" text-anchor="middle" font-size="10" fill="#374151">PRD-10</text>
<rect x="1130" y="530" width="200" height="70" rx="8" fill="#f9fafb" stroke="#d1d5db" stroke-width="1.5"/>
<text x="1230.0" y="550" text-anchor="middle" font-size="13" font-weight="600" fill="#111827">nexus-git</text>
<text x="1230.0" y="566" text-anchor="middle" font-size="10" fill="#6b7280">[git2]</text>
<text x="1230.0" y="584" text-anchor="middle" font-size="10" fill="#374151">Git integration</text>
<rect x="290" y="610" width="200" height="70" rx="8" fill="#f9fafb" stroke="#d1d5db" stroke-width="1.5"/>
<text x="390.0" y="630" text-anchor="middle" font-size="13" font-weight="600" fill="#111827">nexus-theme</text>
<text x="390.0" y="646" text-anchor="middle" font-size="10" fill="#6b7280">[Rust]</text>
<text x="390.0" y="664" text-anchor="middle" font-size="10" fill="#374151">CSS vars</text>
<rect x="500" y="610" width="200" height="70" rx="8" fill="#f9fafb" stroke="#d1d5db" stroke-width="1.5"/>
<text x="600.0" y="630" text-anchor="middle" font-size="13" font-weight="600" fill="#111827">nexus-agent</text>
<text x="600.0" y="646" text-anchor="middle" font-size="10" fill="#6b7280">[Rust]</text>
<text x="600.0" y="664" text-anchor="middle" font-size="10" fill="#374151">PRD-15</text>
<rect x="710" y="610" width="200" height="70" rx="8" fill="#f9fafb" stroke="#d1d5db" stroke-width="1.5"/>
<text x="810.0" y="630" text-anchor="middle" font-size="13" font-weight="600" fill="#111827">nexus-skills</text>
<text x="810.0" y="646" text-anchor="middle" font-size="10" fill="#6b7280">[Rust]</text>
<text x="810.0" y="664" text-anchor="middle" font-size="10" fill="#374151">PRD-13</text>
<rect x="920" y="610" width="200" height="70" rx="8" fill="#f9fafb" stroke="#d1d5db" stroke-width="1.5"/>
<text x="1020.0" y="630" text-anchor="middle" font-size="13" font-weight="600" fill="#111827">nexus-workflow</text>
<text x="1020.0" y="646" text-anchor="middle" font-size="10" fill="#6b7280">[Rust]</text>
<text x="1020.0" y="664" text-anchor="middle" font-size="10" fill="#374151">PRD-16</text>
<rect x="1130" y="610" width="200" height="70" rx="8" fill="#f9fafb" stroke="#d1d5db" stroke-width="1.5"/>
<text x="1230.0" y="630" text-anchor="middle" font-size="13" font-weight="600" fill="#111827">nexus-formats</text>
<text x="1230.0" y="646" text-anchor="middle" font-size="10" fill="#6b7280">[Rust]</text>
<text x="1230.0" y="664" text-anchor="middle" font-size="10" fill="#374151">Parsers</text>
<rect x="290" y="690" width="200" height="70" rx="8" fill="#f9fafb" stroke="#d1d5db" stroke-width="1.5"/>
<text x="390.0" y="710" text-anchor="middle" font-size="13" font-weight="600" fill="#111827">nexus-types</text>
<text x="390.0" y="726" text-anchor="middle" font-size="10" fill="#6b7280">[Rust]</text>
<text x="390.0" y="744" text-anchor="middle" font-size="10" fill="#374151">Shared types</text>
<rect x="500" y="690" width="200" height="70" rx="8" fill="#f9fafb" stroke="#d1d5db" stroke-width="1.5"/>
<text x="600.0" y="710" text-anchor="middle" font-size="13" font-weight="600" fill="#111827">nexus-kv</text>
<text x="600.0" y="726" text-anchor="middle" font-size="10" fill="#6b7280">[Rust]</text>
<text x="600.0" y="744" text-anchor="middle" font-size="10" fill="#374151">Key/value store</text>
<rect x="1060" y="300" width="250" height="40" rx="8" fill="#faf5ff" stroke="#e9d5ff" stroke-width="1.5"/>
<text x="1185.0" y="320" text-anchor="middle" font-size="13" font-weight="600" fill="#111827">nexus-extension-api (TS, packages/)</text>
<rect x="270" y="730" width="1060" height="170" rx="10" fill="none" stroke="#9ca3af" stroke-width="1.5" stroke-dasharray="8,4"/>
<text x="282" y="748" font-size="12" font-weight="600" fill="#6b7280">Storage and extensions</text>
<rect x="310" y="760" width="260" height="110" rx="8" fill="#f0fdf4" stroke="#bbf7d0" stroke-width="1.5"/>
<text x="440.0" y="780" text-anchor="middle" font-size="13" font-weight="600" fill="#111827">Forge Index</text>
<text x="440.0" y="796" text-anchor="middle" font-size="10" fill="#6b7280">[SQLite WAL + Tantivy]</text>
<text x="440.0" y="814" text-anchor="middle" font-size="10" fill="#374151">.forge/index.db + search/</text>
<rect x="600" y="760" width="260" height="110" rx="8" fill="#fef2f2" stroke="#fecaca" stroke-width="1.5"/>
<text x="730.0" y="780" text-anchor="middle" font-size="13" font-weight="600" fill="#111827">Community Plugins</text>
<text x="730.0" y="796" text-anchor="middle" font-size="10" fill="#6b7280">[WASM + JS]</text>
<text x="730.0" y="814" text-anchor="middle" font-size="10" fill="#374151">User-installed at runtime</text>
<rect x="890" y="760" width="400" height="110" rx="8" fill="#ffffff" stroke="#e5e7eb" stroke-width="1.5"/>
<text x="1090.0" y="780" text-anchor="middle" font-size="13" font-weight="600" fill="#111827">(Host: uses nexus-plugins sandbox)</text>
<text x="1090.0" y="814" text-anchor="middle" font-size="10" fill="#374151">loaded + capability-gated</text>
<path d="M 200,150 L 290,210" stroke="#2563eb" stroke-width="1.5" fill="none" marker-end="url(#arrow-blue)"/>
<path d="M 200,160 L 480,215" stroke="#2563eb" stroke-width="1.5" fill="none" marker-end="url(#arrow-blue)"/>
<path d="M 200,170 L 860,220" stroke="#2563eb" stroke-width="1.5" fill="none" marker-end="url(#arrow-blue)"/>
<rect x="364.0" y="162" width="32" height="14" fill="#ffffff" opacity="0.95"/>
<text x="380" y="173" text-anchor="middle" font-size="10" fill="#374151">uses</text>
<path d="M 200,250 L 670,220" stroke="#ea580c" stroke-width="1.5" fill="none" marker-end="url(#arrow-orange)"/>
<rect x="399.0" y="232" width="62" height="14" fill="#ffffff" opacity="0.95"/>
<text x="430" y="243" text-anchor="middle" font-size="10" fill="#374151">MCP stdio</text>
<path d="M 375,270 L 375,350" stroke="#2563eb" stroke-width="1.5" fill="none" marker-end="url(#arrow-blue)"/>
<path d="M 565,270 L 565,350" stroke="#2563eb" stroke-width="1.5" fill="none" marker-end="url(#arrow-blue)"/>
<path d="M 755,270 L 755,350" stroke="#2563eb" stroke-width="1.5" fill="none" marker-end="url(#arrow-blue)"/>
<path d="M 950,270 L 700,350" stroke="#2563eb" stroke-width="1.5" fill="none" marker-end="url(#arrow-blue)"/>
<path d="M 1155,270 L 990,270" stroke="#ea580c" stroke-width="1.5" fill="none" marker-end="url(#arrow-orange)"/>
<rect x="1066.0" y="252" width="28" height="14" fill="#ffffff" opacity="0.95"/>
<text x="1080" y="263" text-anchor="middle" font-size="10" fill="#374151">IPC</text>
<path d="M 950,270 L 390,450" stroke="#9333ea" stroke-width="1.5" fill="none" marker-end="url(#arrow-purple)"/>
<path d="M 670,430 L 390,450" stroke="#2563eb" stroke-width="1.5" fill="none" marker-end="url(#arrow-blue)"/>
<rect x="495.0" y="435" width="50" height="14" fill="#ffffff" opacity="0.95"/>
<text x="520" y="446" text-anchor="middle" font-size="10" fill="#374151">manages</text>
<path d="M 690,430 L 600,450" stroke="#16a34a" stroke-width="1.5" fill="none" marker-end="url(#arrow-green)"/>
<path d="M 720,430 L 820,450" stroke="#2563eb" stroke-width="1.5" fill="none" marker-end="url(#arrow-blue)"/>
<path d="M 390,520 L 730,760" stroke="#2563eb" stroke-width="1.5" fill="none" marker-end="url(#arrow-blue)"/>
<rect x="515.0" y="632" width="110" height="14" fill="#ffffff" opacity="0.95"/>
<text x="570" y="643" text-anchor="middle" font-size="10" fill="#374151">loads + sandboxes</text>
<path d="M 600,520 L 440,760" stroke="#16a34a" stroke-width="1.5" fill="none" marker-end="url(#arrow-green)"/>
<rect x="480.0" y="632" width="80" height="14" fill="#ffffff" opacity="0.95"/>
<text x="520" y="643" text-anchor="middle" font-size="10" fill="#374151">reads/writes</text>
<path d="M 500,520 L 200,550" stroke="#16a34a" stroke-width="1.5" fill="none" marker-end="url(#arrow-green)"/>
<rect x="345.0" y="532" width="50" height="14" fill="#ffffff" opacity="0.95"/>
<text x="370" y="543" text-anchor="middle" font-size="10" fill="#374151">watches</text>
<path d="M 810,520 L 200,450" stroke="#6b7280" stroke-width="1.5" fill="none" marker-end="url(#arrow-gray)" stroke-dasharray="5,3"/>
<rect x="454.0" y="482" width="92" height="14" fill="#ffffff" opacity="0.95"/>
<text x="500" y="493" text-anchor="middle" font-size="10" fill="#374151">stores secrets</text>
<path d="M 820,520 L 200,350" stroke="#2563eb" stroke-width="1.5" fill="none" marker-end="url(#arrow-blue)"/>
<rect x="491.0" y="412" width="38" height="14" fill="#ffffff" opacity="0.95"/>
<text x="510" y="423" text-anchor="middle" font-size="10" fill="#374151">HTTPS</text>
<path d="M 1080,520 L 200,560" stroke="#6b7280" stroke-width="1.5" fill="none" marker-end="url(#arrow-gray)" stroke-dasharray="5,3"/>
<rect x="615.0" y="540" width="50" height="14" fill="#ffffff" opacity="0.95"/>
<text x="640" y="551" text-anchor="middle" font-size="10" fill="#374151">libgit2</text>
<g transform="translate(40,930)">
<rect x="0" y="0" width="700" height="50" rx="6" fill="#ffffff" stroke="#d1d5db"/>
<line x1="12" y1="24" x2="34" y2="24" stroke="#2563eb" stroke-width="1.5" marker-end="url(#arrow-blue)"/>
<text x="40" y="28" font-size="10" fill="#374151">Uses / primary calls</text>
<line x1="147" y1="24" x2="169" y2="24" stroke="#16a34a" stroke-width="1.5" marker-end="url(#arrow-green)"/>
<text x="175" y="28" font-size="10" fill="#374151">File I/O</text>
<line x1="282" y1="24" x2="304" y2="24" stroke="#ea580c" stroke-width="1.5" marker-end="url(#arrow-orange)"/>
<text x="310" y="28" font-size="10" fill="#374151">IPC / MCP</text>
<line x1="417" y1="24" x2="439" y2="24" stroke="#9333ea" stroke-width="1.5" marker-end="url(#arrow-purple)"/>
<text x="445" y="28" font-size="10" fill="#374151">Bootstrap</text>
<line x1="552" y1="24" x2="574" y2="24" stroke="#6b7280" stroke-width="1.5" marker-end="url(#arrow-gray)"/>
<text x="580" y="28" font-size="10" fill="#374151">Auxiliary</text>
</g>
</svg>