<svg xmlns="http://www.w3.org/2000/svg" viewBox="0 0 1200 800" width="1200" height="800">
<style>text{font-family:"Helvetica Neue",Helvetica,Arial,sans-serif;}</style>
<defs>
<marker id="arrow-blue" markerWidth="10" markerHeight="7" refX="9" refY="3.5" orient="auto"><polygon points="0 0,10 3.5,0 7" fill="#2563eb"/></marker>
<marker id="arrow-green" markerWidth="10" markerHeight="7" refX="9" refY="3.5" orient="auto"><polygon points="0 0,10 3.5,0 7" fill="#16a34a"/></marker>
<marker id="arrow-orange" markerWidth="10" markerHeight="7" refX="9" refY="3.5" orient="auto"><polygon points="0 0,10 3.5,0 7" fill="#ea580c"/></marker>
<marker id="arrow-gray" markerWidth="10" markerHeight="7" refX="9" refY="3.5" orient="auto"><polygon points="0 0,10 3.5,0 7" fill="#6b7280"/></marker>
<marker id="arrow-purple" markerWidth="10" markerHeight="7" refX="9" refY="3.5" orient="auto"><polygon points="0 0,10 3.5,0 7" fill="#9333ea"/></marker>
</defs>
<rect width="1200" height="800" fill="#ffffff"/>
<text x="600.0" y="34" text-anchor="middle" font-size="20" font-weight="600" fill="#111827">Components — Plugin System (nexus-plugins)</text>
<text x="600.0" y="56" text-anchor="middle" font-size="12" fill="#6b7280">Level 3 (C4): loader, sandbox, manifest, and backend enum internals</text>
<rect x="60" y="100" width="860" height="580" rx="10" fill="none" stroke="#9ca3af" stroke-width="1.5" stroke-dasharray="8,4"/>
<text x="74" y="118" font-size="12" font-weight="600" fill="#6b7280">nexus-plugins</text>
<rect x="350" y="140" width="280" height="80" rx="8" fill="#dbeafe" stroke="#2563eb" stroke-width="1.5"/>
<text x="490.0" y="162" text-anchor="middle" font-size="13" font-weight="600" fill="#111827">PluginManager</text>
<text x="490.0" y="178" text-anchor="middle" font-size="10" fill="#6b7280">[lib.rs]</text>
<text x="490.0" y="196" text-anchor="middle" font-size="10" fill="#374151">register_core / load / load_all</text>
<rect x="350" y="270" width="280" height="90" rx="8" fill="#eff6ff" stroke="#bfdbfe" stroke-width="1.5"/>
<text x="490.0" y="292" text-anchor="middle" font-size="13" font-weight="600" fill="#111827">PluginLoader</text>
<text x="490.0" y="308" text-anchor="middle" font-size="10" fill="#6b7280">[loader.rs]</text>
<text x="490.0" y="326" text-anchor="middle" font-size="10" fill="#374151">Owns backends by plugin_id</text>
<rect x="80" y="270" width="220" height="90" rx="8" fill="#fff7ed" stroke="#fed7aa" stroke-width="1.5"/>
<text x="190.0" y="292" text-anchor="middle" font-size="13" font-weight="600" fill="#111827">Manifest parser</text>
<text x="190.0" y="308" text-anchor="middle" font-size="10" fill="#6b7280">[manifest.rs]</text>
<text x="190.0" y="326" text-anchor="middle" font-size="10" fill="#374151">plugin.toml -&gt; PluginManifest</text>
<rect x="680" y="270" width="220" height="90" rx="8" fill="#faf5ff" stroke="#e9d5ff" stroke-width="1.5"/>
<text x="790.0" y="292" text-anchor="middle" font-size="13" font-weight="600" fill="#111827">WasmSandbox</text>
<text x="790.0" y="308" text-anchor="middle" font-size="10" fill="#6b7280">[sandbox.rs]</text>
<text x="790.0" y="326" text-anchor="middle" font-size="10" fill="#374151">wasmtime Store + fuel</text>
<rect x="680" y="400" width="220" height="80" rx="8" fill="#faf5ff" stroke="#e9d5ff" stroke-width="1.5"/>
<text x="790.0" y="422" text-anchor="middle" font-size="13" font-weight="600" fill="#111827">Host functions</text>
<text x="790.0" y="438" text-anchor="middle" font-size="10" fill="#6b7280">[host_fns.rs]</text>
<text x="790.0" y="456" text-anchor="middle" font-size="10" fill="#374151">ipc_call / publish / kv</text>
<rect x="80" y="420" width="260" height="80" rx="8" fill="#f0fdf4" stroke="#bbf7d0" stroke-width="1.5"/>
<text x="210.0" y="442" text-anchor="middle" font-size="13" font-weight="600" fill="#111827">CorePlugin (trait)</text>
<text x="210.0" y="458" text-anchor="middle" font-size="10" fill="#6b7280">[loader.rs]</text>
<text x="210.0" y="476" text-anchor="middle" font-size="10" fill="#374151">on_init/start/stop + dispatch</text>
<rect x="360" y="420" width="260" height="80" rx="8" fill="#f0fdf4" stroke="#bbf7d0" stroke-width="1.5"/>
<text x="490.0" y="442" text-anchor="middle" font-size="13" font-weight="600" fill="#111827">PluginBackend (enum)</text>
<text x="490.0" y="458" text-anchor="middle" font-size="10" fill="#6b7280">[loader.rs]</text>
<text x="490.0" y="476" text-anchor="middle" font-size="10" fill="#374151">Core | Community | Script</text>
<rect x="80" y="540" width="200" height="70" rx="8" fill="#f9fafb" stroke="#d1d5db" stroke-width="1.5"/>
<text x="180.0" y="562" text-anchor="middle" font-size="13" font-weight="600" fill="#111827">SettingsManager</text>
<text x="180.0" y="578" text-anchor="middle" font-size="10" fill="#6b7280">[settings.rs]</text>
<text x="180.0" y="596" text-anchor="middle" font-size="10" fill="#374151">Per-plugin settings</text>
<rect x="300" y="540" width="180" height="70" rx="8" fill="#f9fafb" stroke="#d1d5db" stroke-width="1.5"/>
<text x="390.0" y="562" text-anchor="middle" font-size="13" font-weight="600" fill="#111827">HotReload</text>
<text x="390.0" y="578" text-anchor="middle" font-size="10" fill="#6b7280">[hot_reload.rs]</text>
<text x="390.0" y="596" text-anchor="middle" font-size="10" fill="#374151">notify-watches dirs</text>
<rect x="500" y="540" width="180" height="70" rx="8" fill="#f9fafb" stroke="#d1d5db" stroke-width="1.5"/>
<text x="590.0" y="562" text-anchor="middle" font-size="13" font-weight="600" fill="#111827">Scaffold</text>
<text x="590.0" y="578" text-anchor="middle" font-size="10" fill="#6b7280">[scaffold.rs]</text>
<text x="590.0" y="596" text-anchor="middle" font-size="10" fill="#374151">Template generator</text>
<rect x="700" y="540" width="200" height="70" rx="8" fill="#f9fafb" stroke="#d1d5db" stroke-width="1.5"/>
<text x="800.0" y="562" text-anchor="middle" font-size="13" font-weight="600" fill="#111827">Composite</text>
<text x="800.0" y="578" text-anchor="middle" font-size="10" fill="#6b7280">[composite.rs]</text>
<text x="800.0" y="596" text-anchor="middle" font-size="10" fill="#374151">Combines loaders</text>
<rect x="960" y="180" width="210" height="80" rx="8" fill="#dbeafe" stroke="#2563eb" stroke-width="1.5"/>
<text x="1065.0" y="202" text-anchor="middle" font-size="13" font-weight="600" fill="#111827">nexus-kernel</text>
<text x="1065.0" y="218" text-anchor="middle" font-size="10" fill="#6b7280">[external]</text>
<text x="1065.0" y="236" text-anchor="middle" font-size="10" fill="#374151">IpcDispatcher, EventBus, Registry</text>
<rect x="960" y="420" width="210" height="80" rx="8" fill="#f0fdf4" stroke="#bbf7d0" stroke-width="1.5"/>
<text x="1065.0" y="442" text-anchor="middle" font-size="13" font-weight="600" fill="#111827">Plugin directories</text>
<text x="1065.0" y="458" text-anchor="middle" font-size="10" fill="#6b7280">[filesystem]</text>
<text x="1065.0" y="476" text-anchor="middle" font-size="10" fill="#374151">plugin.toml + .wasm / .js</text>
<path d="M 490,220 L 490,270" stroke="#2563eb" stroke-width="1.5" fill="none" marker-end="url(#arrow-blue)"/>
<rect x="460.0" y="238" width="60" height="14" fill="#ffffff" opacity="0.95"/>
<text x="490" y="249" text-anchor="middle" font-size="10" fill="#374151">delegates</text>
<path d="M 350,310 L 300,310" stroke="#2563eb" stroke-width="1.5" fill="none" marker-end="url(#arrow-blue)"/>
<rect x="305.0" y="292" width="42" height="14" fill="#ffffff" opacity="0.95"/>
<text x="326" y="303" text-anchor="middle" font-size="10" fill="#374151">parses</text>
<path d="M 630,310 L 680,310" stroke="#9333ea" stroke-width="1.5" fill="none" marker-end="url(#arrow-purple)"/>
<rect x="635.0" y="292" width="42" height="14" fill="#ffffff" opacity="0.95"/>
<text x="656" y="303" text-anchor="middle" font-size="10" fill="#374151">builds</text>
<path d="M 790,360 L 790,400" stroke="#9333ea" stroke-width="1.5" fill="none" marker-end="url(#arrow-purple)"/>
<rect x="766.0" y="374" width="48" height="14" fill="#ffffff" opacity="0.95"/>
<text x="790" y="385" text-anchor="middle" font-size="10" fill="#374151">exposes</text>
<path d="M 420,360 L 210,420" stroke="#2563eb" stroke-width="1.5" fill="none" marker-end="url(#arrow-blue)"/>
<rect x="268.0" y="384" width="84" height="14" fill="#ffffff" opacity="0.95"/>
<text x="310" y="395" text-anchor="middle" font-size="10" fill="#374151">register_core</text>
<path d="M 490,360 L 490,420" stroke="#2563eb" stroke-width="1.5" fill="none" marker-end="url(#arrow-blue)"/>
<rect x="448.0" y="384" width="84" height="14" fill="#ffffff" opacity="0.95"/>
<text x="490" y="395" text-anchor="middle" font-size="10" fill="#374151">stores per id</text>
<path d="M 360,460 L 340,460" stroke="#6b7280" stroke-width="1.5" fill="none" marker-end="url(#arrow-gray)" stroke-dasharray="5,3"/>
<rect x="335.0" y="442" width="30" height="14" fill="#ffffff" opacity="0.95"/>
<text x="350" y="453" text-anchor="middle" font-size="10" fill="#374151">Core</text>
<path d="M 620,460 L 790,360" stroke="#6b7280" stroke-width="1.5" fill="none" marker-end="url(#arrow-gray)" stroke-dasharray="5,3"/>
<rect x="690.0" y="402" width="60" height="14" fill="#ffffff" opacity="0.95"/>
<text x="720" y="413" text-anchor="middle" font-size="10" fill="#374151">Community</text>
<path d="M 420,360 L 180,540" stroke="#2563eb" stroke-width="1.5" fill="none" marker-end="url(#arrow-blue)"/>
<rect x="245.0" y="452" width="90" height="14" fill="#ffffff" opacity="0.95"/>
<text x="290" y="463" text-anchor="middle" font-size="10" fill="#374151">loads settings</text>
<path d="M 500,360 L 390,540" stroke="#2563eb" stroke-width="1.5" fill="none" marker-end="url(#arrow-blue)"/>
<rect x="423.0" y="452" width="66" height="14" fill="#ffffff" opacity="0.95"/>
<text x="456" y="463" text-anchor="middle" font-size="10" fill="#374151">subscribes</text>
<path d="M 480,570 L 960,460" stroke="#6b7280" stroke-width="1.5" fill="none" marker-end="url(#arrow-gray)" stroke-dasharray="5,3"/>
<rect x="681.0" y="502" width="78" height="14" fill="#ffffff" opacity="0.95"/>
<text x="720" y="513" text-anchor="middle" font-size="10" fill="#374151">notify-watch</text>
<path d="M 630,330 L 960,440" stroke="#16a34a" stroke-width="1.5" fill="none" marker-end="url(#arrow-green)"/>
<rect x="742.0" y="372" width="96" height="14" fill="#ffffff" opacity="0.95"/>
<text x="790" y="383" text-anchor="middle" font-size="10" fill="#374151">reads toml+wasm</text>
<path d="M 630,290 L 960,220" stroke="#2563eb" stroke-width="1.5" fill="none" marker-end="url(#arrow-blue)"/>
<rect x="746.0" y="242" width="108" height="14" fill="#ffffff" opacity="0.95"/>
<text x="800" y="253" text-anchor="middle" font-size="10" fill="#374151">register handlers</text>
<g transform="translate(40,700)">
<rect x="0" y="0" width="620" height="60" rx="6" fill="#ffffff" stroke="#d1d5db"/>
<line x1="12" y1="30" x2="34" y2="30" stroke="#2563eb" stroke-width="1.5" marker-end="url(#arrow-blue)"/>
<text x="40" y="34" font-size="10" fill="#374151">Call / register</text>
<line x1="132" y1="30" x2="154" y2="30" stroke="#9333ea" stroke-width="1.5" marker-end="url(#arrow-purple)"/>
<text x="160" y="34" font-size="10" fill="#374151">Build / expose</text>
<line x1="252" y1="30" x2="274" y2="30" stroke="#16a34a" stroke-width="1.5" marker-end="url(#arrow-green)"/>
<text x="280" y="34" font-size="10" fill="#374151">File I/O</text>
<line x1="372" y1="30" x2="394" y2="30" stroke="#ea580c" stroke-width="1.5" marker-end="url(#arrow-orange)"/>
<text x="400" y="34" font-size="10" fill="#374151">Control</text>
<line x1="492" y1="30" x2="514" y2="30" stroke="#6b7280" stroke-width="1.5" marker-end="url(#arrow-gray)"/>
<text x="520" y="34" font-size="10" fill="#374151">Variant (dashed)</text>
</g>
</svg>