<svg xmlns="http://www.w3.org/2000/svg" viewBox="0 0 960 700" width="960" height="700">
  <defs>
    <marker id="arrowA" markerWidth="10" markerHeight="7" refX="9" refY="3.5" orient="auto">
      <polygon points="0 0, 10 3.5, 0 7" fill="#7c3aed"/>
    </marker>
    <marker id="arrowB" markerWidth="10" markerHeight="7" refX="9" refY="3.5" orient="auto">
      <polygon points="0 0, 10 3.5, 0 7" fill="#10b981"/>
    </marker>
    <marker id="arrowC" markerWidth="10" markerHeight="7" refX="9" refY="3.5" orient="auto">
      <polygon points="0 0, 10 3.5, 0 7" fill="#2563eb"/>
    </marker>
    <marker id="arrowE" markerWidth="10" markerHeight="7" refX="9" refY="3.5" orient="auto">
      <polygon points="0 0, 10 3.5, 0 7" fill="#f97316"/>
    </marker>
    <marker id="arrowF" markerWidth="10" markerHeight="7" refX="9" refY="3.5" orient="auto">
      <polygon points="0 0, 10 3.5, 0 7" fill="#7c3aed"/>
    </marker>
    <marker id="arrowG" markerWidth="10" markerHeight="7" refX="9" refY="3.5" orient="auto">
      <polygon points="0 0, 10 3.5, 0 7" fill="#ef4444"/>
    </marker>
    <marker id="arrowH" markerWidth="10" markerHeight="7" refX="9" refY="3.5" orient="auto">
      <polygon points="0 0, 10 3.5, 0 7" fill="#6b7280"/>
    </marker>
    <filter id="shadowSoft" x="-20%" y="-20%" width="140%" height="160%">
      <feDropShadow dx="0" dy="3" stdDeviation="6" flood-color="#0f172a" flood-opacity="0.12"/>
    </filter>
    <filter id="shadowGlass" x="-20%" y="-20%" width="140%" height="160%">
      <feDropShadow dx="0" dy="10" stdDeviation="16" flood-color="#020617" flood-opacity="0.28"/>
    </filter>
    <style>
    text { font-family: 'Helvetica Neue', Helvetica, Arial, 'PingFang SC', 'Microsoft YaHei', sans-serif; }
    .title { font-size: 30px; font-weight: 700; fill: #111827; }
    .subtitle { font-size: 14px; font-weight: 500; fill: #6b7280; }
    .section { font-size: 13px; font-weight: 700; fill: #2563eb; letter-spacing: 1.4px; }
    .section-sub { font-size: 12px; font-weight: 500; fill: #94a3b8; }
    .node-title { font-size: 18px; font-weight: 700; fill: #111827; }
    .node-sub { font-size: 12px; font-weight: 500; fill: #6b7280; }
    .node-type { font-size: 12px; font-weight: 700; fill: #9ca3af; letter-spacing: 0.08em; }
    .arrow-label { font-size: 12px; font-weight: 600; fill: #6b7280; }
    .legend { font-size: 12px; font-weight: 500; fill: #6b7280; }
    .footnote { font-size: 12px; font-weight: 500; fill: #94a3b8; }
    </style>
  </defs>
  <rect width="960.0" height="700.0" fill="#ffffff"/>
  <text x="480.0" y="56" text-anchor="middle" class="title">Nexus Shell — Boot &amp; Layout</text>
  <text x="480.0" y="82" text-anchor="middle" class="subtitle">main.tsx → plugin activation → App renders tri-pane or pane-mode, backed by stores · registries · kernel bridge</text>
  <rect x="20.0" y="85.0" width="920.0" height="135.0" rx="16.0" fill="none" stroke="#cbd5e1" stroke-width="1.4" stroke-dasharray="6 5"/>
  <text x="38.0" y="109.0" class="section">BOOT SEQUENCE  (MAIN.TSX)</text>
  <text x="38.0" y="129.0" class="section-sub">force theme · register services · load 18 nexus.* plugins · mount React</text>
  <rect x="20.0" y="235.0" width="920.0" height="170.0" rx="16.0" fill="none" stroke="#cbd5e1" stroke-width="1.4" stroke-dasharray="6 5"/>
  <text x="38.0" y="259.0" class="section">REACT TREE  (APP.TSX)</text>
  <text x="38.0" y="279.0" class="section-sub">branches on usePaneModeStore.activeViewId</text>
  <rect x="20.0" y="420.0" width="920.0" height="155.0" rx="16.0" fill="none" stroke="#cbd5e1" stroke-width="1.4" stroke-dasharray="6 5"/>
  <text x="38.0" y="444.0" class="section">SUBSYSTEMS</text>
  <text x="38.0" y="464.0" class="section-sub">state · contribution points · kernel boundary</text>
  <path d="M 190.0,181.0 L 215.0,181.0" fill="none" stroke="#7c3aed" stroke-width="2.4" marker-end="url(#arrowA)"/>
  <path d="M 385.0,181.0 L 410.0,181.0" fill="none" stroke="#7c3aed" stroke-width="2.4" marker-end="url(#arrowA)"/>
  <path d="M 590.0,181.0 L 615.0,181.0" fill="none" stroke="#7c3aed" stroke-width="2.4" marker-end="url(#arrowA)"/>
  <path d="M 757.5,207.0 L 757.5,227.4 L 632.5,227.4 L 632.5,290.0" fill="none" stroke="#7c3aed" stroke-width="2.4" marker-end="url(#arrowA)"/>
  <path d="M 757.5,207.0 L 757.0,260.0 L 180.0,260.0 L 180.0,290.0" fill="none" stroke="#ef4444" stroke-width="2.4" marker-end="url(#arrowG)" stroke-dasharray="6,4"/>
  <path d="M 632.5,385.0 L 632.0,425.0 L 185.0,425.0 L 185.0,470.0" fill="none" stroke="#2563eb" stroke-width="2.4" marker-end="url(#arrowC)"/>
  <path d="M 632.5,385.0 L 632.5,405.4 L 480.0,405.4 L 480.0,470.0" fill="none" stroke="#2563eb" stroke-width="2.4" marker-end="url(#arrowC)"/>
  <path d="M 632.5,385.0 L 900.0,425.0 L 780.0,425.0 L 780.0,470.0" fill="none" stroke="#f97316" stroke-width="2.4" marker-end="url(#arrowE)" stroke-dasharray="6,4"/>
  <rect x="40.0" y="155.0" width="150.0" height="52.0" rx="10.0" fill="#ffffff" stroke="#d1d5db" stroke-width="1.8" filter="url(#shadowSoft)"/>
  <text x="115.0" y="173.0" text-anchor="middle" class="node-type">ENTRY</text>
  <text x="115.0" y="187.0" text-anchor="middle" class="node-title">main.tsx</text>
  <rect x="215.0" y="155.0" width="170.0" height="52.0" rx="10.0" fill="#ffffff" stroke="#d1d5db" stroke-width="1.8" filter="url(#shadowSoft)"/>
  <text x="300.0" y="173.0" text-anchor="middle" class="node-type">host</text>
  <text x="300.0" y="187.0" text-anchor="middle" class="node-title">PluginRegistry</text>
  <rect x="410.0" y="153.0" width="180.0" height="56.0" rx="10.0" fill="#ffffff" stroke="#7c3aed" stroke-width="2.0" filter="url(#shadowSoft)"/>
  <rect x="416.0" y="159.0" width="168.0" height="44.0" rx="7.0" fill="none" stroke="#7c3aed" stroke-width="1.2" opacity="0.65"/>
  <text x="500.0" y="171.0" text-anchor="middle" class="node-type">resolve + activate</text>
  <text x="500.0" y="187.0" text-anchor="middle" class="node-title">ExtensionHost</text>
  <rect x="615.0" y="155.0" width="285.0" height="52.0" rx="10.0" fill="#ffffff" stroke="#d1d5db" stroke-width="1.8" filter="url(#shadowSoft)"/>
  <text x="757.5" y="173.0" text-anchor="middle" class="node-type">MOUNT</text>
  <text x="757.5" y="187.0" text-anchor="middle" class="node-title">ReactDOM.render(&lt;App/&gt;)</text>
  <rect x="50.0" y="290.0" width="260.0" height="95.0" rx="10.0" fill="#ffffff" stroke="#f97316" stroke-width="1.8" filter="url(#shadowSoft)"/>
  <text x="180.0" y="308.0" text-anchor="middle" class="node-type">pane-mode — processes · agent · templates</text>
  <text x="180.0" y="343.5" text-anchor="middle" class="node-title">PaneView</text>
  <rect x="345.0" y="290.0" width="575.0" height="95.0" rx="10.0" fill="#ffffff" stroke="#10b981" stroke-width="2.0" filter="url(#shadowSoft)"/>
  <rect x="351.0" y="296.0" width="563.0" height="83.0" rx="7.0" fill="none" stroke="#10b981" stroke-width="1.2" opacity="0.65"/>
  <text x="632.5" y="308.0" text-anchor="middle" class="node-type">titleBar · activityBar · sidebar · editor · rightPanel · panelArea · statusBar</text>
  <text x="632.5" y="343.5" text-anchor="middle" class="node-title">tri-pane shell</text>
  <rect x="50.0" y="470.0" width="270.0" height="85.0" rx="10.0" fill="#ffffff" stroke="#7c3aed" stroke-width="1.8" filter="url(#shadowSoft)"/>
  <text x="185.0" y="488.0" text-anchor="middle" class="node-type">layoutStore · paneModeStore · slot · processes</text>
  <text x="185.0" y="518.5" text-anchor="middle" class="node-title">Zustand stores</text>
  <rect x="345.0" y="470.0" width="270.0" height="85.0" rx="10.0" fill="#ffffff" stroke="#2563eb" stroke-width="1.8" filter="url(#shadowSoft)"/>
  <text x="480.0" y="488.0" text-anchor="middle" class="node-type">Command · Keybinding · Slot · ContextKey</text>
  <text x="480.0" y="518.5" text-anchor="middle" class="node-title">Registries</text>
  <rect x="640.0" y="470.0" width="280.0" height="85.0" rx="10.0" fill="#ffffff" stroke="#10b981" stroke-width="1.8" filter="url(#shadowSoft)"/>
  <text x="780.0" y="488.0" text-anchor="middle" class="node-type">api.kernel.invoke/on  →  bridge.rs</text>
  <text x="780.0" y="518.5" text-anchor="middle" class="node-title">Kernel bridge</text>
  <rect x="184.5" y="167.0" width="36" height="20" rx="6" fill="#ffffff" opacity="0.94"/>
  <text x="202.5" y="181.0" text-anchor="middle" class="arrow-label">new</text>
  <rect x="376.5" y="167.0" width="42" height="20" rx="6" fill="#ffffff" opacity="0.94"/>
  <text x="397.5" y="181.0" text-anchor="middle" class="arrow-label">deps</text>
  <rect x="578.0" y="167.0" width="49" height="20" rx="6" fill="#ffffff" opacity="0.94"/>
  <text x="602.5" y="181.0" text-anchor="middle" class="arrow-label">ready</text>
  <rect x="667.0" y="213.4" width="56" height="20" rx="6" fill="#ffffff" opacity="0.94"/>
  <text x="695.0" y="227.4" text-anchor="middle" class="arrow-label">render</text>
  <rect x="416.0" y="246.0" width="105" height="20" rx="6" fill="#ffffff" opacity="0.94"/>
  <text x="468.5" y="260.0" text-anchor="middle" class="arrow-label">if paneModeId</text>
  <rect x="370.0" y="395.0" width="77" height="20" rx="6" fill="#ffffff" opacity="0.94"/>
  <text x="408.5" y="409.0" text-anchor="middle" class="arrow-label">subscribe</text>
  <rect x="507.25" y="391.4" width="98" height="20" rx="6" fill="#ffffff" opacity="0.94"/>
  <text x="556.25" y="405.4" text-anchor="middle" class="arrow-label">slot entries</text>
  <rect x="717.25" y="391.0" width="98" height="20" rx="6" fill="#ffffff" opacity="0.94"/>
  <text x="766.25" y="405.0" text-anchor="middle" class="arrow-label">api.kernel.*</text>
  <line x1="42.0" y1="600.0" x2="72.0" y2="600.0" stroke="#7c3aed" stroke-width="2.4" marker-end="url(#arrowA)"/>
  <text x="82.0" y="604.0" class="legend">boot / render path</text>
  <line x1="42.0" y1="622.0" x2="72.0" y2="622.0" stroke="#2563eb" stroke-width="2.4" marker-end="url(#arrowC)"/>
  <text x="82.0" y="626.0" class="legend">UI subscribes to state</text>
  <line x1="42.0" y1="644.0" x2="72.0" y2="644.0" stroke="#ef4444" stroke-width="2.4" marker-end="url(#arrowG)"/>
  <text x="82.0" y="648.0" class="legend">conditional branch (pane-mode)</text>
  <line x1="42.0" y1="666.0" x2="72.0" y2="666.0" stroke="#f97316" stroke-width="2.4" marker-end="url(#arrowE)"/>
  <text x="82.0" y="670.0" class="legend">plugin → kernel surface</text>
</svg>