<svg xmlns="http://www.w3.org/2000/svg" viewBox="0 0 960 700" width="960" height="700">
  <defs>
    <marker id="arrowA" markerWidth="10" markerHeight="7" refX="9" refY="3.5" orient="auto">
      <polygon points="0 0, 10 3.5, 0 7" fill="#7c3aed"/>
    </marker>
    <marker id="arrowB" markerWidth="10" markerHeight="7" refX="9" refY="3.5" orient="auto">
      <polygon points="0 0, 10 3.5, 0 7" fill="#10b981"/>
    </marker>
    <marker id="arrowC" markerWidth="10" markerHeight="7" refX="9" refY="3.5" orient="auto">
      <polygon points="0 0, 10 3.5, 0 7" fill="#2563eb"/>
    </marker>
    <marker id="arrowE" markerWidth="10" markerHeight="7" refX="9" refY="3.5" orient="auto">
      <polygon points="0 0, 10 3.5, 0 7" fill="#f97316"/>
    </marker>
    <marker id="arrowF" markerWidth="10" markerHeight="7" refX="9" refY="3.5" orient="auto">
      <polygon points="0 0, 10 3.5, 0 7" fill="#7c3aed"/>
    </marker>
    <marker id="arrowG" markerWidth="10" markerHeight="7" refX="9" refY="3.5" orient="auto">
      <polygon points="0 0, 10 3.5, 0 7" fill="#ef4444"/>
    </marker>
    <marker id="arrowH" markerWidth="10" markerHeight="7" refX="9" refY="3.5" orient="auto">
      <polygon points="0 0, 10 3.5, 0 7" fill="#6b7280"/>
    </marker>
    <filter id="shadowSoft" x="-20%" y="-20%" width="140%" height="160%">
      <feDropShadow dx="0" dy="3" stdDeviation="6" flood-color="#0f172a" flood-opacity="0.12"/>
    </filter>
    <filter id="shadowGlass" x="-20%" y="-20%" width="140%" height="160%">
      <feDropShadow dx="0" dy="10" stdDeviation="16" flood-color="#020617" flood-opacity="0.28"/>
    </filter>
    <style>
    text { font-family: 'Helvetica Neue', Helvetica, Arial, 'PingFang SC', 'Microsoft YaHei', sans-serif; }
    .title { font-size: 30px; font-weight: 700; fill: #111827; }
    .subtitle { font-size: 14px; font-weight: 500; fill: #6b7280; }
    .section { font-size: 13px; font-weight: 700; fill: #2563eb; letter-spacing: 1.4px; }
    .section-sub { font-size: 12px; font-weight: 500; fill: #94a3b8; }
    .node-title { font-size: 18px; font-weight: 700; fill: #111827; }
    .node-sub { font-size: 12px; font-weight: 500; fill: #6b7280; }
    .node-type { font-size: 12px; font-weight: 700; fill: #9ca3af; letter-spacing: 0.08em; }
    .arrow-label { font-size: 12px; font-weight: 600; fill: #6b7280; }
    .legend { font-size: 12px; font-weight: 500; fill: #6b7280; }
    .footnote { font-size: 12px; font-weight: 500; fill: #94a3b8; }
    </style>
  </defs>
  <rect width="960.0" height="700.0" fill="#ffffff"/>
  <text x="480.0" y="56" text-anchor="middle" class="title">Nexus Event System</text>
  <text x="480.0" y="82" text-anchor="middle" class="subtitle">Two buses, one Tauri bridge — kernel events stream down, invokes go back up</text>
  <rect x="20.0" y="100.0" width="920.0" height="150.0" rx="16.0" fill="none" stroke="#cbd5e1" stroke-width="1.4" stroke-dasharray="6 5"/>
  <text x="38.0" y="124.0" class="section">IN-SHELL BUS  (TYPESCRIPT)</text>
  <text x="38.0" y="144.0" class="section-sub">EventBus singleton · files:open · workspace:opened · plugin:activated</text>
  <rect x="20.0" y="270.0" width="920.0" height="315.0" rx="16.0" fill="none" stroke="#cbd5e1" stroke-width="1.4" stroke-dasharray="6 5"/>
  <text x="38.0" y="294.0" class="section">KERNEL BUS (RUST)  +  TAURI BRIDGE</text>
  <text x="38.0" y="314.0" class="section-sub">com.nexus.storage.* · one channel, demuxed by subscriptionId</text>
  <path d="M 240.0,196.0 L 370.0,196.0" fill="none" stroke="#7c3aed" stroke-width="2.4" marker-end="url(#arrowA)"/>
  <path d="M 590.0,196.0 L 720.0,196.0" fill="none" stroke="#2563eb" stroke-width="2.4" marker-end="url(#arrowC)"/>
  <path d="M 240.0,360.0 L 260.4,360.0 L 349.6,361.0 L 370.0,361.0" fill="none" stroke="#7c3aed" stroke-width="2.4" marker-end="url(#arrowA)"/>
  <path d="M 480.0,394.0 L 480.0,420.0" fill="none" stroke="#f97316" stroke-width="2.4" marker-end="url(#arrowE)"/>
  <path d="M 590.0,448.0 L 720.0,448.0" fill="none" stroke="#f97316" stroke-width="2.4" marker-end="url(#arrowE)"/>
  <path d="M 820.0,422.0 L 820.0,390.0" fill="none" stroke="#2563eb" stroke-width="2.4" marker-end="url(#arrowC)"/>
  <path d="M 820.0,224.0 L 820.0,531.0 L 590.0,531.0" fill="none" stroke="#ef4444" stroke-width="2.4" marker-end="url(#arrowG)" stroke-dasharray="6,4"/>
  <path d="M 370.0,531.0 L 300.0,531.0 L 300.0,430.0 L 140.0,430.0 L 140.0,390.0" fill="none" stroke="#ef4444" stroke-width="2.4" marker-end="url(#arrowG)" stroke-dasharray="6,4"/>
  <rect x="40.0" y="168.0" width="200.0" height="56.0" rx="10.0" fill="#ffffff" stroke="#d1d5db" stroke-width="1.8" filter="url(#shadowSoft)"/>
  <text x="140.0" y="186.0" text-anchor="middle" class="node-type">EMITTERS</text>
  <text x="140.0" y="202.0" text-anchor="middle" class="node-title">TS plugins / UI</text>
  <rect x="370.0" y="166.0" width="220.0" height="60.0" rx="10.0" fill="#ffffff" stroke="#7c3aed" stroke-width="2.0" filter="url(#shadowSoft)"/>
  <rect x="376.0" y="172.0" width="208.0" height="48.0" rx="7.0" fill="none" stroke="#7c3aed" stroke-width="1.2" opacity="0.65"/>
  <text x="480.0" y="184.0" text-anchor="middle" class="node-type">EventBus.ts</text>
  <text x="480.0" y="202.0" text-anchor="middle" class="node-title">eventBus singleton</text>
  <rect x="720.0" y="168.0" width="200.0" height="56.0" rx="10.0" fill="#ffffff" stroke="#d1d5db" stroke-width="1.8" filter="url(#shadowSoft)"/>
  <text x="820.0" y="186.0" text-anchor="middle" class="node-type">api.events.on</text>
  <text x="820.0" y="202.0" text-anchor="middle" class="node-title">hooks / zustand stores</text>
  <rect x="40.0" y="330.0" width="200.0" height="60.0" rx="10.0" fill="#ffffff" stroke="#d1d5db" stroke-width="1.8" filter="url(#shadowSoft)"/>
  <text x="140.0" y="348.0" text-anchor="middle" class="node-type">publish_event</text>
  <text x="140.0" y="366.0" text-anchor="middle" class="node-title">Rust kernel plugins</text>
  <rect x="370.0" y="328.0" width="220.0" height="66.0" rx="10.0" fill="#ffffff" stroke="#10b981" stroke-width="2.0" filter="url(#shadowSoft)"/>
  <rect x="376.0" y="334.0" width="208.0" height="54.0" rx="7.0" fill="none" stroke="#10b981" stroke-width="1.2" opacity="0.65"/>
  <text x="480.0" y="346.0" text-anchor="middle" class="node-type">KernelRuntime</text>
  <text x="480.0" y="367.0" text-anchor="middle" class="node-title">bridge.rs subscribe task</text>
  <rect x="720.0" y="330.0" width="200.0" height="60.0" rx="10.0" fill="#ffffff" stroke="#d1d5db" stroke-width="1.8" filter="url(#shadowSoft)"/>
  <text x="820.0" y="348.0" text-anchor="middle" class="node-type">CONSUMERS</text>
  <text x="820.0" y="366.0" text-anchor="middle" class="node-title">zustand store → React</text>
  <rect x="370.0" y="420.0" width="220.0" height="56.0" rx="10.0" fill="#ffffff" stroke="#2563eb" stroke-width="2.0" filter="url(#shadowSoft)"/>
  <rect x="376.0" y="426.0" width="208.0" height="44.0" rx="7.0" fill="none" stroke="#2563eb" stroke-width="1.2" opacity="0.65"/>
  <text x="480.0" y="438.0" text-anchor="middle" class="node-type">Tauri IPC</text>
  <text x="480.0" y="454.0" text-anchor="middle" class="node-title">"kernel:event" channel</text>
  <rect x="720.0" y="422.0" width="200.0" height="52.0" rx="10.0" fill="#ffffff" stroke="#d1d5db" stroke-width="1.8" filter="url(#shadowSoft)"/>
  <text x="820.0" y="440.0" text-anchor="middle" class="node-type">PluginAPI.ts</text>
  <text x="820.0" y="454.0" text-anchor="middle" class="node-title">api.kernel.on(prefix, fn)</text>
  <rect x="370.0" y="505.0" width="220.0" height="52.0" rx="10.0" fill="#ffffff" stroke="#f97316" stroke-width="1.8" filter="url(#shadowSoft)"/>
  <text x="480.0" y="523.0" text-anchor="middle" class="node-type">REQ / RES</text>
  <text x="480.0" y="537.0" text-anchor="middle" class="node-title">api.kernel.invoke(…)</text>
  <rect x="284.0" y="166.0" width="42" height="20" rx="6" fill="#ffffff" opacity="0.94"/>
  <text x="305.0" y="180.0" text-anchor="middle" class="arrow-label">emit</text>
  <rect x="623.5" y="166.0" width="63" height="20" rx="6" fill="#ffffff" opacity="0.94"/>
  <text x="655.0" y="180.0" text-anchor="middle" class="arrow-label">deliver</text>
  <rect x="235.0" y="346.5" width="140" height="20" rx="6" fill="#ffffff" opacity="0.94"/>
  <text x="305.0" y="360.5" text-anchor="middle" class="arrow-label">NexusEvent::Custom</text>
  <rect x="445.0" y="393.0" width="70" height="20" rx="6" fill="#ffffff" opacity="0.94"/>
  <text x="480.0" y="407.0" text-anchor="middle" class="arrow-label">envelope</text>
  <rect x="599.0" y="418.0" width="112" height="20" rx="6" fill="#ffffff" opacity="0.94"/>
  <text x="655.0" y="432.0" text-anchor="middle" class="arrow-label">demux by subId</text>
  <rect x="656.0" y="501.0" width="98" height="20" rx="6" fill="#ffffff" opacity="0.94"/>
  <text x="705.0" y="515.0" text-anchor="middle" class="arrow-label">back-channel</text>
  <rect x="192.0" y="400.0" width="56" height="20" rx="6" fill="#ffffff" opacity="0.94"/>
  <text x="220.0" y="414.0" text-anchor="middle" class="arrow-label">invoke</text>
  <line x1="42.0" y1="615.0" x2="72.0" y2="615.0" stroke="#7c3aed" stroke-width="2.4" marker-end="url(#arrowA)"/>
  <text x="82.0" y="619.0" class="legend">emit / primary path</text>
  <line x1="42.0" y1="637.0" x2="72.0" y2="637.0" stroke="#2563eb" stroke-width="2.4" marker-end="url(#arrowC)"/>
  <text x="82.0" y="641.0" class="legend">subscriber delivery</text>
  <line x1="42.0" y1="659.0" x2="72.0" y2="659.0" stroke="#f97316" stroke-width="2.4" marker-end="url(#arrowE)"/>
  <text x="82.0" y="663.0" class="legend">Tauri bridge transport</text>
  <line x1="42.0" y1="681.0" x2="72.0" y2="681.0" stroke="#ef4444" stroke-width="2.4" marker-end="url(#arrowG)"/>
  <text x="82.0" y="685.0" class="legend">UI → kernel back-channel (req/res)</text>
</svg>