<svg xmlns="http://www.w3.org/2000/svg" viewBox="0 0 960 700" width="960" height="700">
  <defs>
    <marker id="arrowA" markerWidth="10" markerHeight="7" refX="9" refY="3.5" orient="auto">
      <polygon points="0 0, 10 3.5, 0 7" fill="#7c3aed"/>
    </marker>
    <marker id="arrowB" markerWidth="10" markerHeight="7" refX="9" refY="3.5" orient="auto">
      <polygon points="0 0, 10 3.5, 0 7" fill="#10b981"/>
    </marker>
    <marker id="arrowC" markerWidth="10" markerHeight="7" refX="9" refY="3.5" orient="auto">
      <polygon points="0 0, 10 3.5, 0 7" fill="#2563eb"/>
    </marker>
    <marker id="arrowE" markerWidth="10" markerHeight="7" refX="9" refY="3.5" orient="auto">
      <polygon points="0 0, 10 3.5, 0 7" fill="#f97316"/>
    </marker>
    <marker id="arrowF" markerWidth="10" markerHeight="7" refX="9" refY="3.5" orient="auto">
      <polygon points="0 0, 10 3.5, 0 7" fill="#7c3aed"/>
    </marker>
    <marker id="arrowG" markerWidth="10" markerHeight="7" refX="9" refY="3.5" orient="auto">
      <polygon points="0 0, 10 3.5, 0 7" fill="#ef4444"/>
    </marker>
    <marker id="arrowH" markerWidth="10" markerHeight="7" refX="9" refY="3.5" orient="auto">
      <polygon points="0 0, 10 3.5, 0 7" fill="#6b7280"/>
    </marker>
    <filter id="shadowSoft" x="-20%" y="-20%" width="140%" height="160%">
      <feDropShadow dx="0" dy="3" stdDeviation="6" flood-color="#0f172a" flood-opacity="0.12"/>
    </filter>
    <filter id="shadowGlass" x="-20%" y="-20%" width="140%" height="160%">
      <feDropShadow dx="0" dy="10" stdDeviation="16" flood-color="#020617" flood-opacity="0.28"/>
    </filter>
    <style>
    text { font-family: 'Helvetica Neue', Helvetica, Arial, 'PingFang SC', 'Microsoft YaHei', sans-serif; }
    .title { font-size: 30px; font-weight: 700; fill: #111827; }
    .subtitle { font-size: 14px; font-weight: 500; fill: #6b7280; }
    .section { font-size: 13px; font-weight: 700; fill: #2563eb; letter-spacing: 1.4px; }
    .section-sub { font-size: 12px; font-weight: 500; fill: #94a3b8; }
    .node-title { font-size: 18px; font-weight: 700; fill: #111827; }
    .node-sub { font-size: 12px; font-weight: 500; fill: #6b7280; }
    .node-type { font-size: 12px; font-weight: 700; fill: #9ca3af; letter-spacing: 0.08em; }
    .arrow-label { font-size: 12px; font-weight: 600; fill: #6b7280; }
    .legend { font-size: 12px; font-weight: 500; fill: #6b7280; }
    .footnote { font-size: 12px; font-weight: 500; fill: #94a3b8; }
    </style>
  </defs>
  <rect width="960.0" height="700.0" fill="#ffffff"/>
  <text x="480.0" y="56" text-anchor="middle" class="title">Nexus Shell — UI Composition</text>
  <text x="480.0" y="82" text-anchor="middle" class="subtitle">plugins register contributions into named slots — the shell chrome is empty geometry until they fill it</text>
  <rect x="20.0" y="85.0" width="320.0" height="500.0" rx="16.0" fill="none" stroke="#cbd5e1" stroke-width="1.4" stroke-dasharray="6 5"/>
  <text x="38.0" y="109.0" class="section">PLUGINS</text>
  <text x="38.0" y="129.0" class="section-sub">each registers via api.views.register(slot, component, priority)</text>
  <rect x="360.0" y="85.0" width="580.0" height="500.0" rx="16.0" fill="none" stroke="#cbd5e1" stroke-width="1.4" stroke-dasharray="6 5"/>
  <text x="378.0" y="109.0" class="section">SHELL CHROME</text>
  <text x="378.0" y="129.0" class="section-sub">slots rendered by App.tsx — pane-mode swaps the center for a full view</text>
  <path d="M 325.0,162.0 L 503.0,162.0 L 503.0,194.0" fill="none" stroke="#7c3aed" stroke-width="2.4" marker-end="url(#arrowA)"/>
  <path d="M 325.0,214.0 L 669.0,214.0 L 669.0,194.0" fill="none" stroke="#7c3aed" stroke-width="2.4" marker-end="url(#arrowA)"/>
  <path d="M 325.0,266.0 L 840.0,266.0 L 840.0,194.0" fill="none" stroke="#7c3aed" stroke-width="2.4" marker-end="url(#arrowA)"/>
  <path d="M 325.0,318.0 L 345.4,318.0 L 359.6,519.0 L 380.0,519.0" fill="none" stroke="#f97316" stroke-width="2.4" marker-end="url(#arrowE)"/>
  <path d="M 325.0,422.0 L 345.4,422.0 L 359.6,320.0 L 380.0,320.0" fill="none" stroke="#ef4444" stroke-width="2.4" marker-end="url(#arrowG)" stroke-dasharray="6,4"/>
  <rect x="35.0" y="140.0" width="290.0" height="44.0" rx="10.0" fill="#ffffff" stroke="#d1d5db" stroke-width="1.8" filter="url(#shadowSoft)"/>
  <text x="180.0" y="158.0" text-anchor="middle" class="node-type">→ sidebar (file tree)</text>
  <text x="180.0" y="168.0" text-anchor="middle" class="node-title">nexus.files</text>
  <rect x="35.0" y="192.0" width="290.0" height="44.0" rx="10.0" fill="#ffffff" stroke="#d1d5db" stroke-width="1.8" filter="url(#shadowSoft)"/>
  <text x="180.0" y="210.0" text-anchor="middle" class="node-type">→ editor (markdown / code view)</text>
  <text x="180.0" y="220.0" text-anchor="middle" class="node-title">nexus.editor</text>
  <rect x="35.0" y="244.0" width="290.0" height="44.0" rx="10.0" fill="#ffffff" stroke="#d1d5db" stroke-width="1.8" filter="url(#shadowSoft)"/>
  <text x="180.0" y="262.0" text-anchor="middle" class="node-type">→ rightPanel (PRD tracker)</text>
  <text x="180.0" y="272.0" text-anchor="middle" class="node-title">nexus.outline</text>
  <rect x="35.0" y="296.0" width="290.0" height="44.0" rx="10.0" fill="#ffffff" stroke="#d1d5db" stroke-width="1.8" filter="url(#shadowSoft)"/>
  <text x="180.0" y="314.0" text-anchor="middle" class="node-type">→ statusBar segment</text>
  <text x="180.0" y="324.0" text-anchor="middle" class="node-title">nexus.wordCount</text>
  <rect x="35.0" y="348.0" width="290.0" height="44.0" rx="10.0" fill="#ffffff" stroke="#d1d5db" stroke-width="1.8" filter="url(#shadowSoft)"/>
  <text x="180.0" y="366.0" text-anchor="middle" class="node-type">→ statusBar segment</text>
  <text x="180.0" y="376.0" text-anchor="middle" class="node-title">nexus.tapStatus</text>
  <rect x="35.0" y="400.0" width="290.0" height="44.0" rx="10.0" fill="#ffffff" stroke="#f97316" stroke-width="1.8" filter="url(#shadowSoft)"/>
  <text x="180.0" y="418.0" text-anchor="middle" class="node-type">→ activityBar + paneMode view</text>
  <text x="180.0" y="428.0" text-anchor="middle" class="node-title">nexus.processes</text>
  <rect x="35.0" y="452.0" width="290.0" height="44.0" rx="10.0" fill="#ffffff" stroke="#f97316" stroke-width="1.8" filter="url(#shadowSoft)"/>
  <text x="180.0" y="470.0" text-anchor="middle" class="node-type">→ activityBar + paneMode view</text>
  <text x="180.0" y="480.0" text-anchor="middle" class="node-title">nexus.agent</text>
  <rect x="35.0" y="504.0" width="290.0" height="44.0" rx="10.0" fill="#ffffff" stroke="#f97316" stroke-width="1.8" filter="url(#shadowSoft)"/>
  <text x="180.0" y="522.0" text-anchor="middle" class="node-type">→ activityBar + paneMode view</text>
  <text x="180.0" y="532.0" text-anchor="middle" class="node-title">nexus.templates</text>
  <rect x="380.0" y="150.0" width="540.0" height="34.0" rx="10.0" fill="#f8fafc" stroke="#cbd5e1" stroke-width="1.8" filter="url(#shadowSoft)"/>
  <text x="650.0" y="167.0" text-anchor="middle" class="node-title">titleBar</text>
  <rect x="380.0" y="194.0" width="40.0" height="252.0" rx="10.0" fill="#f8fafc" stroke="#cbd5e1" stroke-width="1.8" filter="url(#shadowSoft)"/>
  <text x="400.0" y="320.0" text-anchor="middle" class="node-title">A</text>
  <rect x="428.0" y="194.0" width="150.0" height="252.0" rx="10.0" fill="#ffffff" stroke="#94a3b8" stroke-width="1.8" filter="url(#shadowSoft)"/>
  <text x="503.0" y="320.0" text-anchor="middle" class="node-title">sidebar</text>
  <rect x="586.0" y="194.0" width="166.0" height="252.0" rx="10.0" fill="#ffffff" stroke="#10b981" stroke-width="1.8" filter="url(#shadowSoft)"/>
  <text x="669.0" y="320.0" text-anchor="middle" class="node-title">editor</text>
  <rect x="760.0" y="194.0" width="160.0" height="252.0" rx="10.0" fill="#ffffff" stroke="#94a3b8" stroke-width="1.8" filter="url(#shadowSoft)"/>
  <text x="840.0" y="320.0" text-anchor="middle" class="node-title">rightPanel</text>
  <rect x="428.0" y="456.0" width="492.0" height="36.0" rx="10.0" fill="#f8fafc" stroke="#cbd5e1" stroke-width="1.8" filter="url(#shadowSoft)"/>
  <text x="674.0" y="474.0" text-anchor="middle" class="node-title">panelArea</text>
  <rect x="380.0" y="502.0" width="540.0" height="34.0" rx="10.0" fill="#f8fafc" stroke="#cbd5e1" stroke-width="1.8" filter="url(#shadowSoft)"/>
  <text x="650.0" y="519.0" text-anchor="middle" class="node-title">statusBar</text>
  <rect x="314.0" y="357.0" width="77" height="20" rx="6" fill="#ffffff" opacity="0.94"/>
  <text x="352.5" y="371.0" text-anchor="middle" class="arrow-label">pane-mode</text>
  <line x1="42.0" y1="605.0" x2="72.0" y2="605.0" stroke="#7c3aed" stroke-width="2.4" marker-end="url(#arrowA)"/>
  <text x="82.0" y="609.0" class="legend">UI view contribution</text>
  <line x1="42.0" y1="627.0" x2="72.0" y2="627.0" stroke="#f97316" stroke-width="2.4" marker-end="url(#arrowE)"/>
  <text x="82.0" y="631.0" class="legend">statusBar segment</text>
  <line x1="42.0" y1="649.0" x2="72.0" y2="649.0" stroke="#ef4444" stroke-width="2.4" marker-end="url(#arrowG)"/>
  <text x="82.0" y="653.0" class="legend">pane-mode contribution (full-pane takeover)</text>
</svg>