<svg xmlns="http://www.w3.org/2000/svg" viewBox="0 0 1200 800" width="1200" height="800">
<style>text{font-family:"Helvetica Neue",Helvetica,Arial,sans-serif;}</style>
<defs>
<marker id="arrow-blue" markerWidth="10" markerHeight="7" refX="9" refY="3.5" orient="auto"><polygon points="0 0,10 3.5,0 7" fill="#2563eb"/></marker>
<marker id="arrow-green" markerWidth="10" markerHeight="7" refX="9" refY="3.5" orient="auto"><polygon points="0 0,10 3.5,0 7" fill="#16a34a"/></marker>
<marker id="arrow-orange" markerWidth="10" markerHeight="7" refX="9" refY="3.5" orient="auto"><polygon points="0 0,10 3.5,0 7" fill="#ea580c"/></marker>
<marker id="arrow-gray" markerWidth="10" markerHeight="7" refX="9" refY="3.5" orient="auto"><polygon points="0 0,10 3.5,0 7" fill="#6b7280"/></marker>
<marker id="arrow-purple" markerWidth="10" markerHeight="7" refX="9" refY="3.5" orient="auto"><polygon points="0 0,10 3.5,0 7" fill="#9333ea"/></marker>
</defs>
<rect width="1200" height="800" fill="#ffffff"/>
<text x="600.0" y="34" text-anchor="middle" font-size="20" font-weight="600" fill="#111827">Components — Rust Core (nexus-kernel)</text>
<text x="600.0" y="56" text-anchor="middle" font-size="12" fill="#6b7280">Level 3 (C4): internals of nexus-kernel and its core-crate collaborators</text>
<rect x="80" y="100" width="820" height="560" rx="10" fill="none" stroke="#9ca3af" stroke-width="1.5" stroke-dasharray="8,4"/>
<text x="94" y="118" font-size="12" font-weight="600" fill="#6b7280">nexus-kernel</text>
<rect x="410" y="150" width="220" height="80" rx="8" fill="#dbeafe" stroke="#2563eb" stroke-width="1.5"/>
<text x="520.0" y="172" text-anchor="middle" font-size="13" font-weight="600" fill="#111827">Kernel</text>
<text x="520.0" y="188" text-anchor="middle" font-size="10" fill="#6b7280">[kernel.rs]</text>
<text x="520.0" y="208" text-anchor="middle" font-size="10" fill="#374151">Top-level facade</text>
<rect x="120" y="280" width="220" height="80" rx="8" fill="#eff6ff" stroke="#bfdbfe" stroke-width="1.5"/>
<text x="230.0" y="302" text-anchor="middle" font-size="13" font-weight="600" fill="#111827">EventBus</text>
<text x="230.0" y="318" text-anchor="middle" font-size="10" fill="#6b7280">[event_bus.rs / event.rs]</text>
<text x="230.0" y="338" text-anchor="middle" font-size="10" fill="#374151">Pub/sub + EventFilter</text>
<rect x="370" y="280" width="220" height="80" rx="8" fill="#eff6ff" stroke="#bfdbfe" stroke-width="1.5"/>
<text x="480.0" y="302" text-anchor="middle" font-size="13" font-weight="600" fill="#111827">PluginRegistry</text>
<text x="480.0" y="318" text-anchor="middle" font-size="10" fill="#6b7280">[plugin_registry.rs]</text>
<text x="480.0" y="338" text-anchor="middle" font-size="10" fill="#374151">PluginInfo + PluginStatus</text>
<rect x="620" y="280" width="260" height="80" rx="8" fill="#eff6ff" stroke="#bfdbfe" stroke-width="1.5"/>
<text x="750.0" y="302" text-anchor="middle" font-size="13" font-weight="600" fill="#111827">IpcDispatcher</text>
<text x="750.0" y="318" text-anchor="middle" font-size="10" fill="#6b7280">[ipc.rs]</text>
<text x="750.0" y="338" text-anchor="middle" font-size="10" fill="#374151">handler_id + args to backend</text>
<rect x="120" y="410" width="220" height="80" rx="8" fill="#fff7ed" stroke="#fed7aa" stroke-width="1.5"/>
<text x="230.0" y="432" text-anchor="middle" font-size="13" font-weight="600" fill="#111827">Capability</text>
<text x="230.0" y="448" text-anchor="middle" font-size="10" fill="#6b7280">[capability.rs]</text>
<text x="230.0" y="468" text-anchor="middle" font-size="10" fill="#374151">Declared + granted sets</text>
<rect x="370" y="410" width="220" height="80" rx="8" fill="#faf5ff" stroke="#e9d5ff" stroke-width="1.5"/>
<text x="480.0" y="432" text-anchor="middle" font-size="13" font-weight="600" fill="#111827">KernelPluginContext</text>
<text x="480.0" y="448" text-anchor="middle" font-size="10" fill="#6b7280">[context.rs / context_impl.rs]</text>
<text x="480.0" y="468" text-anchor="middle" font-size="10" fill="#374151">Per-plugin handle</text>
<rect x="620" y="410" width="260" height="80" rx="8" fill="#f0fdf4" stroke="#bbf7d0" stroke-width="1.5"/>
<text x="750.0" y="432" text-anchor="middle" font-size="13" font-weight="600" fill="#111827">KvStore</text>
<text x="750.0" y="448" text-anchor="middle" font-size="10" fill="#6b7280">[kv_store.rs]</text>
<text x="750.0" y="468" text-anchor="middle" font-size="10" fill="#374151">Small persistent KV</text>
<rect x="250" y="540" width="200" height="70" rx="8" fill="#f9fafb" stroke="#d1d5db" stroke-width="1.5"/>
<text x="350.0" y="562" text-anchor="middle" font-size="13" font-weight="600" fill="#111827">Config</text>
<text x="350.0" y="578" text-anchor="middle" font-size="10" fill="#6b7280">[config.rs]</text>
<text x="350.0" y="598" text-anchor="middle" font-size="10" fill="#374151">Runtime config</text>
<rect x="530" y="540" width="200" height="70" rx="8" fill="#f9fafb" stroke="#d1d5db" stroke-width="1.5"/>
<text x="630.0" y="562" text-anchor="middle" font-size="13" font-weight="600" fill="#111827">Log</text>
<text x="630.0" y="578" text-anchor="middle" font-size="10" fill="#6b7280">[log.rs]</text>
<text x="630.0" y="598" text-anchor="middle" font-size="10" fill="#374151">Tracing facade</text>
<rect x="940" y="100" width="220" height="560" rx="10" fill="none" stroke="#9ca3af" stroke-width="1.5" stroke-dasharray="8,4"/>
<text x="954" y="118" font-size="12" font-weight="600" fill="#6b7280">Collaborators</text>
<rect x="960" y="150" width="180" height="60" rx="8" fill="#faf5ff" stroke="#e9d5ff" stroke-width="1.5"/>
<text x="1050.0" y="172" text-anchor="middle" font-size="13" font-weight="600" fill="#111827">nexus-bootstrap</text>
<text x="1050.0" y="208" text-anchor="middle" font-size="10" fill="#374151">Wires core plugins</text>
<rect x="960" y="230" width="180" height="60" rx="8" fill="#faf5ff" stroke="#e9d5ff" stroke-width="1.5"/>
<text x="1050.0" y="252" text-anchor="middle" font-size="13" font-weight="600" fill="#111827">nexus-plugins</text>
<text x="1050.0" y="288" text-anchor="middle" font-size="10" fill="#374151">Loader + sandbox</text>
<rect x="960" y="310" width="180" height="60" rx="8" fill="#f0fdf4" stroke="#bbf7d0" stroke-width="1.5"/>
<text x="1050.0" y="332" text-anchor="middle" font-size="13" font-weight="600" fill="#111827">nexus-storage</text>
<text x="1050.0" y="368" text-anchor="middle" font-size="10" fill="#374151">Core plugin</text>
<rect x="960" y="390" width="180" height="60" rx="8" fill="#f0fdf4" stroke="#bbf7d0" stroke-width="1.5"/>
<text x="1050.0" y="412" text-anchor="middle" font-size="13" font-weight="600" fill="#111827">nexus-security</text>
<text x="1050.0" y="448" text-anchor="middle" font-size="10" fill="#374151">Core plugin</text>
<rect x="960" y="470" width="180" height="60" rx="8" fill="#f0fdf4" stroke="#bbf7d0" stroke-width="1.5"/>
<text x="1050.0" y="492" text-anchor="middle" font-size="13" font-weight="600" fill="#111827">nexus-ai</text>
<text x="1050.0" y="528" text-anchor="middle" font-size="10" fill="#374151">Core plugin</text>
<path d="M 460,230 L 230,280" stroke="#2563eb" stroke-width="1.5" fill="none" marker-end="url(#arrow-blue)"/>
<rect x="315.0" y="242" width="30" height="14" fill="#ffffff" opacity="0.95"/>
<text x="330" y="253" text-anchor="middle" font-size="10" fill="#374151">owns</text>
<path d="M 520,230 L 480,280" stroke="#2563eb" stroke-width="1.5" fill="none" marker-end="url(#arrow-blue)"/>
<rect x="485.0" y="244" width="30" height="14" fill="#ffffff" opacity="0.95"/>
<text x="500" y="255" text-anchor="middle" font-size="10" fill="#374151">owns</text>
<path d="M 580,230 L 750,280" stroke="#2563eb" stroke-width="1.5" fill="none" marker-end="url(#arrow-blue)"/>
<rect x="645.0" y="242" width="30" height="14" fill="#ffffff" opacity="0.95"/>
<text x="660" y="253" text-anchor="middle" font-size="10" fill="#374151">owns</text>
<path d="M 680,360 L 230,410" stroke="#ea580c" stroke-width="1.5" fill="none" marker-end="url(#arrow-orange)"/>
<rect x="429.0" y="384" width="42" height="14" fill="#ffffff" opacity="0.95"/>
<text x="450" y="395" text-anchor="middle" font-size="10" fill="#374151">checks</text>
<path d="M 680,360 L 480,410" stroke="#6b7280" stroke-width="1.5" fill="none" marker-end="url(#arrow-gray)" stroke-dasharray="5,3"/>
<rect x="569.0" y="380" width="42" height="14" fill="#ffffff" opacity="0.95"/>
<text x="590" y="391" text-anchor="middle" font-size="10" fill="#374151">lookup</text>
<path d="M 390,410 L 230,360" stroke="#2563eb" stroke-width="1.5" fill="none" marker-end="url(#arrow-blue)"/>
<rect x="282.0" y="380" width="48" height="14" fill="#ffffff" opacity="0.95"/>
<text x="306" y="391" text-anchor="middle" font-size="10" fill="#374151">pub/sub</text>
<path d="M 570,410 L 720,360" stroke="#2563eb" stroke-width="1.5" fill="none" marker-end="url(#arrow-blue)"/>
<rect x="623.0" y="382" width="54" height="14" fill="#ffffff" opacity="0.95"/>
<text x="650" y="393" text-anchor="middle" font-size="10" fill="#374151">ipc_call</text>
<path d="M 960,180 L 630,200" stroke="#9333ea" stroke-width="1.5" fill="none" marker-end="url(#arrow-purple)"/>
<rect x="748.0" y="178" width="84" height="14" fill="#ffffff" opacity="0.95"/>
<text x="790" y="189" text-anchor="middle" font-size="10" fill="#374151">register_core</text>
<path d="M 960,260 L 590,310" stroke="#2563eb" stroke-width="1.5" fill="none" marker-end="url(#arrow-blue)"/>
<rect x="740.0" y="272" width="60" height="14" fill="#ffffff" opacity="0.95"/>
<text x="770" y="283" text-anchor="middle" font-size="10" fill="#374151">populates</text>
<path d="M 960,270 L 880,310" stroke="#2563eb" stroke-width="1.5" fill="none" marker-end="url(#arrow-blue)"/>
<rect x="893.0" y="278" width="54" height="14" fill="#ffffff" opacity="0.95"/>
<text x="920" y="289" text-anchor="middle" font-size="10" fill="#374151">handlers</text>
<path d="M 960,280 L 590,440" stroke="#6b7280" stroke-width="1.5" fill="none" marker-end="url(#arrow-gray)" stroke-dasharray="5,3"/>
<rect x="740.0" y="360" width="60" height="14" fill="#ffffff" opacity="0.95"/>
<text x="770" y="371" text-anchor="middle" font-size="10" fill="#374151">hands out</text>
<path d="M 960,340 L 590,445" stroke="#16a34a" stroke-width="1.5" fill="none" marker-end="url(#arrow-green)"/>
<path d="M 960,420 L 590,450" stroke="#16a34a" stroke-width="1.5" fill="none" marker-end="url(#arrow-green)"/>
<path d="M 960,500 L 590,460" stroke="#16a34a" stroke-width="1.5" fill="none" marker-end="url(#arrow-green)"/>
<rect x="717.0" y="442" width="126" height="14" fill="#ffffff" opacity="0.95"/>
<text x="780" y="453" text-anchor="middle" font-size="10" fill="#374151">core plugin uses ctx</text>
<g transform="translate(40,700)">
<rect x="0" y="0" width="560" height="60" rx="6" fill="#ffffff" stroke="#d1d5db"/>
<line x1="12" y1="30" x2="34" y2="30" stroke="#2563eb" stroke-width="1.5" marker-end="url(#arrow-blue)"/>
<text x="40" y="34" font-size="10" fill="#374151">Owns / calls</text>
<line x1="122" y1="30" x2="144" y2="30" stroke="#ea580c" stroke-width="1.5" marker-end="url(#arrow-orange)"/>
<text x="150" y="34" font-size="10" fill="#374151">Enforces</text>
<line x1="232" y1="30" x2="254" y2="30" stroke="#9333ea" stroke-width="1.5" marker-end="url(#arrow-purple)"/>
<text x="260" y="34" font-size="10" fill="#374151">Register</text>
<line x1="342" y1="30" x2="364" y2="30" stroke="#16a34a" stroke-width="1.5" marker-end="url(#arrow-green)"/>
<text x="370" y="34" font-size="10" fill="#374151">Core-plugin use</text>
<line x1="452" y1="30" x2="474" y2="30" stroke="#6b7280" stroke-width="1.5" marker-end="url(#arrow-gray)"/>
<text x="480" y="34" font-size="10" fill="#374151">Aux (dashed)</text>
</g>
</svg>