<svg xmlns="http://www.w3.org/2000/svg" viewBox="0 0 1600 1100" width="1600" height="1100">
<style>text{font-family:"Helvetica Neue",Helvetica,Arial,sans-serif;}</style>
<defs>
<marker id="arrow-open" markerWidth="12" markerHeight="10" refX="11" refY="5" orient="auto"><path d="M 0,0 L 11,5 L 0,10" fill="none" stroke="#374151" stroke-width="1.2"/></marker>
<marker id="tri-hollow" markerWidth="14" markerHeight="12" refX="13" refY="6" orient="auto"><path d="M 0,0 L 13,6 L 0,12 z" fill="#ffffff" stroke="#374151" stroke-width="1.2"/></marker>
</defs>
<rect width="1600" height="1100" fill="#ffffff"/>
<text x="800.0" y="36" text-anchor="middle" font-size="20" font-weight="600" fill="#111827">Code — CorePlugin / PluginBackend / PluginManifest (UML)</text>
<text x="800.0" y="58" text-anchor="middle" font-size="12" fill="#6b7280">Level 4 (C4): class-level view of the two load-bearing abstractions</text>
<rect x="60" y="100" width="260" height="116" fill="#ffffff" stroke="#2563eb" stroke-width="1.5"/>
<rect x="60" y="100" width="260" height="28" fill="#dbeafe" stroke="#2563eb" stroke-width="1.5"/>
<text x="190.0" y="118" text-anchor="middle" font-size="13" font-weight="600" fill="#111827">PluginManager</text>
<line x1="60" y1="128" x2="320" y2="128" stroke="#2563eb" stroke-width="1"/>
<text x="68" y="144" font-size="11" fill="#111827">- loader: PluginLoader</text>
<line x1="60" y1="154" x2="320" y2="154" stroke="#2563eb" stroke-width="1"/>
<text x="68" y="170" font-size="11" fill="#111827">+ register_core(manifest, dir, plugin): Result</text>
<text x="68" y="188" font-size="11" fill="#111827">+ load(dir): Result&lt;PluginInfo&gt;</text>
<text x="68" y="206" font-size="11" fill="#111827">+ load_all(): Result&lt;Vec&lt;PluginInfo&gt;&gt;</text>
<rect x="60" y="280" width="300" height="134" fill="#ffffff" stroke="#2563eb" stroke-width="1.5"/>
<rect x="60" y="280" width="300" height="28" fill="#dbeafe" stroke="#2563eb" stroke-width="1.5"/>
<text x="210.0" y="298" text-anchor="middle" font-size="13" font-weight="600" fill="#111827">PluginLoader</text>
<line x1="60" y1="308" x2="360" y2="308" stroke="#2563eb" stroke-width="1"/>
<text x="68" y="324" font-size="11" fill="#111827">- backends: HashMap&lt;String, PluginBackend&gt;</text>
<text x="68" y="342" font-size="11" fill="#111827">- settings: SettingsManager</text>
<line x1="60" y1="352" x2="360" y2="352" stroke="#2563eb" stroke-width="1"/>
<text x="68" y="368" font-size="11" fill="#111827">+ register_core(manifest, dir, plugin): Result</text>
<text x="68" y="386" font-size="11" fill="#111827">+ load(dir: Path): Result&lt;PluginInfo&gt;</text>
<text x="68" y="404" font-size="11" fill="#111827">+ dispatch(plugin_id, handler_id, args): Result</text>
<rect x="60" y="500" width="300" height="132" fill="#ffffff" stroke="#2563eb" stroke-width="1.5"/>
<rect x="60" y="500" width="300" height="44" fill="#dbeafe" stroke="#2563eb" stroke-width="1.5"/>
<text x="210.0" y="518" text-anchor="middle" font-size="11" font-style="italic" fill="#374151">&lt;&lt;enum&gt;&gt;</text>
<text x="210.0" y="534" text-anchor="middle" font-size="13" font-weight="600" fill="#111827">PluginBackend</text>
<line x1="60" y1="544" x2="360" y2="544" stroke="#2563eb" stroke-width="1"/>
<text x="68" y="560" font-size="11" fill="#111827">Core(Box&lt;dyn CorePlugin&gt;)</text>
<text x="68" y="578" font-size="11" fill="#111827">Community(WasmSandbox)</text>
<text x="68" y="596" font-size="11" fill="#111827">Script</text>
<line x1="60" y1="606" x2="360" y2="606" stroke="#2563eb" stroke-width="1"/>
<text x="68" y="622" font-size="11" fill="#111827">+ dispatch(handler_id, args): Result</text>
<rect x="420" y="280" width="320" height="228" fill="#ffffff" stroke="#2563eb" stroke-width="1.5"/>
<rect x="420" y="280" width="320" height="44" fill="#dbeafe" stroke="#2563eb" stroke-width="1.5"/>
<text x="580.0" y="298" text-anchor="middle" font-size="11" font-style="italic" fill="#374151">&lt;&lt;trait&gt;&gt;</text>
<text x="580.0" y="314" text-anchor="middle" font-size="13" font-weight="600" fill="#111827">CorePlugin</text>
<line x1="420" y1="324" x2="740" y2="324" stroke="#2563eb" stroke-width="1"/>
<line x1="420" y1="338" x2="740" y2="338" stroke="#2563eb" stroke-width="1"/>
<text x="428" y="354" font-size="11" fill="#111827">+ on_init(): Result</text>
<text x="428" y="372" font-size="11" fill="#111827">+ on_start(): Result</text>
<text x="428" y="390" font-size="11" fill="#111827">+ on_stop()</text>
<text x="428" y="408" font-size="11" fill="#111827">+ on_enable(): Result</text>
<text x="428" y="426" font-size="11" fill="#111827">+ on_disable()</text>
<text x="428" y="444" font-size="11" fill="#111827">+ on_settings_changed(settings): Result</text>
<text x="428" y="462" font-size="11" fill="#111827">+ dispatch(handler_id, args): Result&lt;Value&gt;</text>
<text x="428" y="480" font-size="11" fill="#111827">+ dispatch_async(handler_id, args): Option&lt;CorePluginFuture&gt;</text>
<text x="428" y="498" font-size="11" fill="#111827">+ wire_context(ctx: Arc&lt;KernelPluginContext&gt;)</text>
<rect x="420" y="560" width="300" height="116" fill="#ffffff" stroke="#2563eb" stroke-width="1.5"/>
<rect x="420" y="560" width="300" height="28" fill="#dbeafe" stroke="#2563eb" stroke-width="1.5"/>
<text x="570.0" y="578" text-anchor="middle" font-size="13" font-weight="600" fill="#111827">WasmSandbox</text>
<line x1="420" y1="588" x2="720" y2="588" stroke="#2563eb" stroke-width="1"/>
<text x="428" y="604" font-size="11" fill="#111827">- store: wasmtime::Store</text>
<text x="428" y="622" font-size="11" fill="#111827">- data: PluginData</text>
<text x="428" y="640" font-size="11" fill="#111827">- forwarder: PluginEventForwarder</text>
<line x1="420" y1="650" x2="720" y2="650" stroke="#2563eb" stroke-width="1"/>
<text x="428" y="666" font-size="11" fill="#111827">+ dispatch(handler_id, args): Result</text>
<rect x="420" y="750" width="300" height="104" fill="#ffffff" stroke="#2563eb" stroke-width="1.5"/>
<rect x="420" y="750" width="300" height="28" fill="#dbeafe" stroke="#2563eb" stroke-width="1.5"/>
<text x="570.0" y="768" text-anchor="middle" font-size="13" font-weight="600" fill="#111827">KernelPluginContext</text>
<line x1="420" y1="778" x2="720" y2="778" stroke="#2563eb" stroke-width="1"/>
<line x1="420" y1="792" x2="720" y2="792" stroke="#2563eb" stroke-width="1"/>
<text x="428" y="808" font-size="11" fill="#111827">+ emit_event(evt)</text>
<text x="428" y="826" font-size="11" fill="#111827">+ ipc_call(plugin_id, handler_id, args): IpcFuture</text>
<text x="428" y="844" font-size="11" fill="#111827">+ settings(): Value</text>
<rect x="780" y="280" width="250" height="68" fill="#ffffff" stroke="#16a34a" stroke-width="1.5"/>
<rect x="780" y="280" width="250" height="28" fill="#f0fdf4" stroke="#16a34a" stroke-width="1.5"/>
<text x="905.0" y="298" text-anchor="middle" font-size="13" font-weight="600" fill="#111827">CorePluginImpl_Storage</text>
<line x1="780" y1="308" x2="1030" y2="308" stroke="#16a34a" stroke-width="1"/>
<line x1="780" y1="322" x2="1030" y2="322" stroke="#16a34a" stroke-width="1"/>
<text x="788" y="338" font-size="11" fill="#111827">+ dispatch(handler_id, args)</text>
<rect x="780" y="390" width="250" height="68" fill="#ffffff" stroke="#16a34a" stroke-width="1.5"/>
<rect x="780" y="390" width="250" height="28" fill="#f0fdf4" stroke="#16a34a" stroke-width="1.5"/>
<text x="905.0" y="408" text-anchor="middle" font-size="13" font-weight="600" fill="#111827">CorePluginImpl_AI</text>
<line x1="780" y1="418" x2="1030" y2="418" stroke="#16a34a" stroke-width="1"/>
<line x1="780" y1="432" x2="1030" y2="432" stroke="#16a34a" stroke-width="1"/>
<text x="788" y="448" font-size="11" fill="#111827">+ dispatch_async(handler_id, args)</text>
<rect x="780" y="500" width="250" height="56" fill="#ffffff" stroke="#16a34a" stroke-width="1.5"/>
<rect x="780" y="500" width="250" height="28" fill="#f0fdf4" stroke="#16a34a" stroke-width="1.5"/>
<text x="905.0" y="518" text-anchor="middle" font-size="13" font-weight="600" fill="#111827">CorePluginImpl_Security</text>
<line x1="780" y1="528" x2="1030" y2="528" stroke="#16a34a" stroke-width="1"/>
<line x1="780" y1="542" x2="1030" y2="542" stroke="#16a34a" stroke-width="1"/>
<line x1="1060" y1="90" x2="1060" y2="1060" stroke="#e5e7eb" stroke-width="1"/>
<text x="1320" y="90" text-anchor="middle" font-size="14" font-weight="600" fill="#6b7280">PluginManifest type family</text>
<rect x="1080" y="110" width="320" height="302" fill="#ffffff" stroke="#2563eb" stroke-width="1.5"/>
<rect x="1080" y="110" width="320" height="28" fill="#dbeafe" stroke="#2563eb" stroke-width="1.5"/>
<text x="1240.0" y="128" text-anchor="middle" font-size="13" font-weight="600" fill="#111827">PluginManifest</text>
<line x1="1080" y1="138" x2="1400" y2="138" stroke="#2563eb" stroke-width="1"/>
<text x="1088" y="154" font-size="11" fill="#111827">+ id: String</text>
<text x="1088" y="172" font-size="11" fill="#111827">+ name: String</text>
<text x="1088" y="190" font-size="11" fill="#111827">+ version: String</text>
<text x="1088" y="208" font-size="11" fill="#111827">+ trust_level: TrustLevel</text>
<text x="1088" y="226" font-size="11" fill="#111827">+ api_version: String</text>
<text x="1088" y="244" font-size="11" fill="#111827">+ runtime: PluginRuntime</text>
<text x="1088" y="262" font-size="11" fill="#111827">+ capabilities: ManifestCapabilities</text>
<text x="1088" y="280" font-size="11" fill="#111827">+ wasm: Option&lt;WasmConfig&gt;</text>
<text x="1088" y="298" font-size="11" fill="#111827">+ script: Option&lt;ScriptConfig&gt;</text>
<text x="1088" y="316" font-size="11" fill="#111827">+ settings: Option&lt;SettingsConfig&gt;</text>
<text x="1088" y="334" font-size="11" fill="#111827">+ registrations: Registrations</text>
<text x="1088" y="352" font-size="11" fill="#111827">+ lifecycle: LifecycleConfig</text>
<text x="1088" y="370" font-size="11" fill="#111827">+ activation: ActivationConfig</text>
<text x="1088" y="388" font-size="11" fill="#111827">+ dependencies: Vec&lt;PluginDependency&gt;</text>
<line x1="1080" y1="398" x2="1400" y2="398" stroke="#2563eb" stroke-width="1"/>
<rect x="1420" y="110" width="160" height="102" fill="#ffffff" stroke="#ea580c" stroke-width="1.5"/>
<rect x="1420" y="110" width="160" height="44" fill="#fff7ed" stroke="#ea580c" stroke-width="1.5"/>
<text x="1500.0" y="128" text-anchor="middle" font-size="11" font-style="italic" fill="#374151">&lt;&lt;enum&gt;&gt;</text>
<text x="1500.0" y="144" text-anchor="middle" font-size="13" font-weight="600" fill="#111827">TrustLevel</text>
<line x1="1420" y1="154" x2="1580" y2="154" stroke="#ea580c" stroke-width="1"/>
<text x="1428" y="170" font-size="11" fill="#111827">Core</text>
<text x="1428" y="188" font-size="11" fill="#111827">Community</text>
<line x1="1420" y1="198" x2="1580" y2="198" stroke="#ea580c" stroke-width="1"/>
<rect x="1420" y="240" width="160" height="120" fill="#ffffff" stroke="#ea580c" stroke-width="1.5"/>
<rect x="1420" y="240" width="160" height="44" fill="#fff7ed" stroke="#ea580c" stroke-width="1.5"/>
<text x="1500.0" y="258" text-anchor="middle" font-size="11" font-style="italic" fill="#374151">&lt;&lt;enum&gt;&gt;</text>
<text x="1500.0" y="274" text-anchor="middle" font-size="13" font-weight="600" fill="#111827">PluginRuntime</text>
<line x1="1420" y1="284" x2="1580" y2="284" stroke="#ea580c" stroke-width="1"/>
<text x="1428" y="300" font-size="11" fill="#111827">Wasm</text>
<text x="1428" y="318" font-size="11" fill="#111827">Script</text>
<text x="1428" y="336" font-size="11" fill="#111827">Native</text>
<line x1="1420" y1="346" x2="1580" y2="346" stroke="#ea580c" stroke-width="1"/>
<rect x="1420" y="370" width="160" height="86" fill="#ffffff" stroke="#2563eb" stroke-width="1.5"/>
<rect x="1420" y="370" width="160" height="28" fill="#dbeafe" stroke="#2563eb" stroke-width="1.5"/>
<text x="1500.0" y="388" text-anchor="middle" font-size="13" font-weight="600" fill="#111827">ManifestCapabilities</text>
<line x1="1420" y1="398" x2="1580" y2="398" stroke="#2563eb" stroke-width="1"/>
<text x="1428" y="414" font-size="11" fill="#111827">+ required: Vec&lt;String&gt;</text>
<text x="1428" y="432" font-size="11" fill="#111827">+ optional: Vec&lt;String&gt;</text>
<line x1="1420" y1="442" x2="1580" y2="442" stroke="#2563eb" stroke-width="1"/>
<rect x="1420" y="480" width="160" height="68" fill="#ffffff" stroke="#2563eb" stroke-width="1.5"/>
<rect x="1420" y="480" width="160" height="28" fill="#dbeafe" stroke="#2563eb" stroke-width="1.5"/>
<text x="1500.0" y="498" text-anchor="middle" font-size="13" font-weight="600" fill="#111827">WasmConfig</text>
<line x1="1420" y1="508" x2="1580" y2="508" stroke="#2563eb" stroke-width="1"/>
<text x="1428" y="524" font-size="11" fill="#111827">+ module: String</text>
<line x1="1420" y1="534" x2="1580" y2="534" stroke="#2563eb" stroke-width="1"/>
<rect x="1420" y="570" width="160" height="68" fill="#ffffff" stroke="#2563eb" stroke-width="1.5"/>
<rect x="1420" y="570" width="160" height="28" fill="#dbeafe" stroke="#2563eb" stroke-width="1.5"/>
<text x="1500.0" y="588" text-anchor="middle" font-size="13" font-weight="600" fill="#111827">ScriptConfig</text>
<line x1="1420" y1="598" x2="1580" y2="598" stroke="#2563eb" stroke-width="1"/>
<text x="1428" y="614" font-size="11" fill="#111827">+ entry: String</text>
<line x1="1420" y1="624" x2="1580" y2="624" stroke="#2563eb" stroke-width="1"/>
<rect x="1420" y="660" width="160" height="86" fill="#ffffff" stroke="#2563eb" stroke-width="1.5"/>
<rect x="1420" y="660" width="160" height="28" fill="#dbeafe" stroke="#2563eb" stroke-width="1.5"/>
<text x="1500.0" y="678" text-anchor="middle" font-size="13" font-weight="600" fill="#111827">PluginDependency</text>
<line x1="1420" y1="688" x2="1580" y2="688" stroke="#2563eb" stroke-width="1"/>
<text x="1428" y="704" font-size="11" fill="#111827">+ plugin_id: String</text>
<text x="1428" y="722" font-size="11" fill="#111827">+ version_req: String</text>
<line x1="1420" y1="732" x2="1580" y2="732" stroke="#2563eb" stroke-width="1"/>
<rect x="1080" y="670" width="160" height="68" fill="#ffffff" stroke="#2563eb" stroke-width="1.5"/>
<rect x="1080" y="670" width="160" height="28" fill="#dbeafe" stroke="#2563eb" stroke-width="1.5"/>
<text x="1160.0" y="688" text-anchor="middle" font-size="13" font-weight="600" fill="#111827">Registrations</text>
<line x1="1080" y1="698" x2="1240" y2="698" stroke="#2563eb" stroke-width="1"/>
<text x="1088" y="714" font-size="11" fill="#111827">+ handler entries</text>
<line x1="1080" y1="724" x2="1240" y2="724" stroke="#2563eb" stroke-width="1"/>
<rect x="1080" y="770" width="160" height="56" fill="#ffffff" stroke="#2563eb" stroke-width="1.5"/>
<rect x="1080" y="770" width="160" height="28" fill="#dbeafe" stroke="#2563eb" stroke-width="1.5"/>
<text x="1160.0" y="788" text-anchor="middle" font-size="13" font-weight="600" fill="#111827">LifecycleConfig</text>
<line x1="1080" y1="798" x2="1240" y2="798" stroke="#2563eb" stroke-width="1"/>
<line x1="1080" y1="812" x2="1240" y2="812" stroke="#2563eb" stroke-width="1"/>
<rect x="1080" y="830" width="160" height="56" fill="#ffffff" stroke="#2563eb" stroke-width="1.5"/>
<rect x="1080" y="830" width="160" height="28" fill="#dbeafe" stroke="#2563eb" stroke-width="1.5"/>
<text x="1160.0" y="848" text-anchor="middle" font-size="13" font-weight="600" fill="#111827">ActivationConfig</text>
<line x1="1080" y1="858" x2="1240" y2="858" stroke="#2563eb" stroke-width="1"/>
<line x1="1080" y1="872" x2="1240" y2="872" stroke="#2563eb" stroke-width="1"/>
<rect x="1080" y="890" width="160" height="56" fill="#ffffff" stroke="#2563eb" stroke-width="1.5"/>
<rect x="1080" y="890" width="160" height="28" fill="#dbeafe" stroke="#2563eb" stroke-width="1.5"/>
<text x="1160.0" y="908" text-anchor="middle" font-size="13" font-weight="600" fill="#111827">SettingsConfig</text>
<line x1="1080" y1="918" x2="1240" y2="918" stroke="#2563eb" stroke-width="1"/>
<line x1="1080" y1="932" x2="1240" y2="932" stroke="#2563eb" stroke-width="1"/>
<path d="M 190,200 L 190,280" stroke="#374151" stroke-width="1.2" fill="none" marker-end="url(#arrow-open)"/>
<rect x="175.0" y="232" width="30" height="14" fill="#ffffff" opacity="0.95"/>
<text x="190" y="243" text-anchor="middle" font-size="10" fill="#374151">owns</text>
<path d="M 210,430 L 210,500" stroke="#374151" stroke-width="1.2" fill="none" marker-end="url(#arrow-open)"/>
<rect x="189.0" y="457" width="42" height="14" fill="#ffffff" opacity="0.95"/>
<text x="210" y="468" text-anchor="middle" font-size="10" fill="#374151">stores</text>
<path d="M 360,520 L 420,400" stroke="#374151" stroke-width="1.2" fill="none" marker-end="url(#arrow-open)" stroke-dasharray="5,3"/>
<rect x="361.0" y="452" width="78" height="14" fill="#ffffff" opacity="0.95"/>
<text x="400" y="463" text-anchor="middle" font-size="10" fill="#374151">Core variant</text>
<path d="M 360,560 L 420,600" stroke="#374151" stroke-width="1.2" fill="none" marker-end="url(#arrow-open)" stroke-dasharray="5,3"/>
<rect x="370.0" y="572" width="60" height="14" fill="#ffffff" opacity="0.95"/>
<text x="400" y="583" text-anchor="middle" font-size="10" fill="#374151">Community</text>
<path d="M 780,340 L 740,330" stroke="#374151" stroke-width="1.2" fill="none" marker-end="url(#tri-hollow)" stroke-dasharray="6,3"/>
<path d="M 780,430 L 740,400" stroke="#374151" stroke-width="1.2" fill="none" marker-end="url(#tri-hollow)" stroke-dasharray="6,3"/>
<path d="M 780,540 L 740,460" stroke="#374151" stroke-width="1.2" fill="none" marker-end="url(#tri-hollow)" stroke-dasharray="6,3"/>
<rect x="734.0" y="382" width="72" height="14" fill="#ffffff" opacity="0.95"/>
<text x="770" y="393" text-anchor="middle" font-size="10" fill="#374151">&lt;&lt;realize&gt;&gt;</text>
<path d="M 580,540 L 580,750" stroke="#374151" stroke-width="1.2" fill="none" marker-end="url(#arrow-open)" stroke-dasharray="5,3"/>
<rect x="514.0" y="637" width="132" height="14" fill="#ffffff" opacity="0.95"/>
<text x="580" y="648" text-anchor="middle" font-size="10" fill="#374151">wire_context receives</text>
<path d="M 1400,160 L 1420,150" stroke="#374151" stroke-width="1.2" fill="none" marker-end="url(#arrow-open)"/>
<path d="M 1400,210 L 1420,270" stroke="#374151" stroke-width="1.2" fill="none" marker-end="url(#arrow-open)"/>
<path d="M 1400,240 L 1420,400" stroke="#374151" stroke-width="1.2" fill="none" marker-end="url(#arrow-open)"/>
<path d="M 1400,290 L 1420,510" stroke="#374151" stroke-width="1.2" fill="none" marker-end="url(#arrow-open)"/>
<rect x="1380.0" y="412" width="60" height="14" fill="#ffffff" opacity="0.95"/>
<text x="1410" y="423" text-anchor="middle" font-size="10" fill="#374151">0..1 wasm</text>
<path d="M 1400,310 L 1420,600" stroke="#374151" stroke-width="1.2" fill="none" marker-end="url(#arrow-open)"/>
<rect x="1374.0" y="462" width="72" height="14" fill="#ffffff" opacity="0.95"/>
<text x="1410" y="473" text-anchor="middle" font-size="10" fill="#374151">0..1 script</text>
<path d="M 1400,430 L 1420,690" stroke="#374151" stroke-width="1.2" fill="none" marker-end="url(#arrow-open)"/>
<rect x="1397.0" y="572" width="26" height="14" fill="#ffffff" opacity="0.95"/>
<text x="1410" y="583" text-anchor="middle" font-size="10" fill="#374151">*</text>
<path d="M 1200,490 L 1160,670" stroke="#374151" stroke-width="1.2" fill="none" marker-end="url(#arrow-open)"/>
<path d="M 1200,500 L 1160,770" stroke="#374151" stroke-width="1.2" fill="none" marker-end="url(#arrow-open)"/>
<path d="M 1180,500 L 1140,830" stroke="#374151" stroke-width="1.2" fill="none" marker-end="url(#arrow-open)"/>
<path d="M 1160,500 L 1140,890" stroke="#374151" stroke-width="1.2" fill="none" marker-end="url(#arrow-open)"/>
<text x="60" y="1020" font-size="10" fill="#9ca3af" font-style="italic">// TODO: verify exact list of core plugin impls — inferred from nexus-storage / nexus-ai / nexus-security wired via nexus-bootstrap.</text>
<text x="1080" y="1020" font-size="10" fill="#9ca3af" font-style="italic">// TODO: verify exact variants of PluginRuntime and Registrations shape.</text>
<g transform="translate(60,1050)">
<rect x="0" y="0" width="820" height="40" rx="6" fill="#ffffff" stroke="#d1d5db"/>
<line x1="12" y1="22" x2="46" y2="22" stroke="#374151" stroke-width="1.2" marker-end="url(#arrow-open)"/>
<text x="52" y="26" font-size="10" fill="#374151">Association</text>
<line x1="252" y1="22" x2="286" y2="22" stroke="#374151" stroke-width="1.2" marker-end="url(#tri-hollow)" stroke-dasharray="5,3"/>
<text x="292" y="26" font-size="10" fill="#374151">Realization (dashed + hollow triangle)</text>
<line x1="492" y1="22" x2="526" y2="22" stroke="#374151" stroke-width="1.2" marker-end="url(#arrow-open)" stroke-dasharray="5,3"/>
<text x="532" y="26" font-size="10" fill="#374151">Dependency (dashed)</text>
</g>
</svg>